<?xml version="1.0" encoding="utf-8"?>
<!DOCTYPE svg PUBLIC "-//W3C//DTD SVG 1.1//EN" "http://www.w3.org/Graphics/SVG/1.1/DTD/svg11.dtd">
<svg version="1.1" xmlns="http://www.w3.org/2000/svg" xmlns:xlink="http://www.w3.org/1999/xlink" width="1920" height="300" viewBox="0 0 1920 300">
	<defs>
		<g id="icon-clipartComponent">
			<path d="M23.7,0.5c-5.8,0.3-11.5,2.7-16,7.1c-9.6,9.6-9.6,25.1,0,34.6c4.8,4.8,11.1,7.2,17.3,7.2s12.5-2.4,17.3-7.2
				c4.4-4.4,6.8-10.2,7.1-16L23.7,0.5z M44.3,24c-1.6-0.3-3.1-0.7-4.6-1.3c-2.8-1.1-5.3-2.8-7.4-4.9c-2.3-2.3-4-5-5.2-8
				c-0.5-1.3-0.9-2.6-1.1-4L44.3,24z M31.6,20c4.3,3.9,9.6,6,15,6.3l0.8,0.8c-0.2,2.4-0.8,4.7-1.8,6.9c-1.1,2.6-2.7,4.9-4.7,6.8
				c-2.1,2.1-4.6,3.8-7.4,4.9c-2.7,1.1-5.5,1.6-8.5,1.6s-5.8-0.6-8.4-1.6c-2.8-1.1-5.3-2.8-7.4-4.9c-2.1-2.1-3.8-4.6-4.9-7.4
				c-1.1-2.7-1.6-5.5-1.6-8.5s0.6-5.8,1.6-8.5c1.1-2.8,2.8-5.3,4.9-7.4c2-2,4.3-3.6,6.8-4.7c2.2-1,4.5-1.6,6.9-1.8l0.8,0.8
				c0.3,4.4,1.7,8.7,4.3,12.5"/>
			<circle cx="20" cy="20.7" r="1.5"/>
			<circle cx="29.5" cy="20.7" r="1.5"/>
			<path d="M24.6,31.7c3,0,5.8-1.5,7.4-4l-1.3-0.8c-1.5,2.3-4.2,3.6-6.9,3.3c-2.1-0.2-4.1-1.5-5.3-3.3l-1.3,0.8
				c1.4,2.2,3.8,3.7,6.4,4C23.9,31.7,24.3,31.7,24.6,31.7z"/>
		</g>
		<g id="icon-designsComponent">
			<path d="M15.6,14.7c1.6,0,2.8-1.3,2.8-2.8c0-1.6-1.3-2.8-2.8-2.8s-2.8,1.3-2.8,2.8C12.7,13.5,14,14.7,15.6,14.7z M15.6,10.5
				c0.8,0,1.4,0.6,1.4,1.4c0,0.8-0.6,1.4-1.4,1.4s-1.4-0.6-1.4-1.4C14.1,11.1,14.8,10.5,15.6,10.5z"/>
			<path d="M9.6,21.3c1.9,0,3.4-1.5,3.4-3.4s-1.5-3.4-3.4-3.4c-1.9,0-3.4,1.5-3.4,3.4S7.7,21.3,9.6,21.3z M9.6,15.9c1.1,0,2,0.9,2,2
				c0,1.1-0.9,2-2,2s-2-0.9-2-2C7.6,16.8,8.5,15.9,9.6,15.9z"/>
			<path d="M15.5,28.8c-1.9,0-3.4,1.5-3.4,3.4c0,1.9,1.5,3.4,3.4,3.4c1.9,0,3.4-1.5,3.4-3.4C18.9,30.3,17.4,28.8,15.5,28.8z
				 M15.5,34.2c-1.1,0-2-0.9-2-2c0-1.1,0.9-2,2-2s2,0.9,2,2C17.5,33.3,16.6,34.2,15.5,34.2z"/>
			<path d="M8.9,22.9c-1.9,0-3.5,1.5-3.5,3.5c0,1.9,1.5,3.5,3.5,3.5s3.5-1.5,3.5-3.5C12.4,24.5,10.8,22.9,8.9,22.9z M8.9,28.4
				c-1.1,0-2-0.9-2-2c0-1.1,0.9-2,2-2s2,0.9,2,2C11,27.5,10.1,28.4,8.9,28.4z"/>
			<path d="M48.3,13.7c-1.4-1.4-3.3-0.4-4.1,0.3l-8,7c-0.5-3.1-2.1-3.8-3.4-3.8c-1.5,0-3,1-3.5,1.3l-2.9,2.2c-1.6,1.2-3.9,0.7-4.9-1
				c-0.9-1.5-0.5-3.4,0.9-4.4l2.9-2.2c4.2-3.2,2.9-7.4-4.6-8.3c-9.2-1.1-18.1,5.3-19.5,15C-0.3,29.9,7,39,17,40
				c-0.4,1.5-0.3,3,0.3,4.4c0.1,0.2,0.2,0.3,0.4,0.4c4.3,1.8,9.8-1.3,9.5-5.7c0.2,0-0.1,0.1,4.2-2.8c1.5,0.7,3.1-0.9,2.6-2.4
				l10-11.4c0.3-0.3,0.2-0.7-0.1-1s-0.7-0.2-1,0.1L33,32.8l-3.8-3.8c0.3-0.3,15.2-13.3,15.9-14c0,0,1.4-1.2,2.2-0.4
				c0.8,0.8-0.4,2.2-0.4,2.2l-2.6,3c-0.3,0.3-0.2,0.7,0.1,1c0.3,0.3,0.7,0.2,1-0.1l2.6-3C48.7,17,49.7,15.1,48.3,13.7z M24.6,42
				c-1.6,1.6-4.1,2.3-6.2,1.5c-1.1-3.1,1-7.3,4.1-7.3c0.9,0,1.7,0.3,2.2,0.9C26.1,38.5,26,40.6,24.6,42z M27.1,37.5
				c-1.1-1.1-1.5-1.5-2.5-2.5l2.1-3.1l3.5,3.5L27.1,37.5z M32.6,34.6c0,0.2-0.1,0.3-0.2,0.4c-0.1,0.1-0.4,0.1-0.5,0L27,30.2
				c-0.1-0.1-0.1-0.4,0-0.5l0.1-0.1c0.1-0.1,0.4-0.1,0.5,0C32.8,34.7,32.6,34.4,32.6,34.6z M28.1,28.2c-1.5-0.6-3.1,1.1-2.4,2.6
				c-2.8,4.1-2.7,3.9-2.8,4.2c-2.5-0.2-4.5,1.5-5.5,3.7C8.1,37.9,1.2,29.4,2.6,20.1c1.2-8.4,8.6-14.2,16.6-13.9c3.7,0.1,6.8,1.5,7,3
				c0.2,1.4-1.6,2.8-1.8,2.9l-2.9,2.2c-2.3,1.7-2.6,5-0.6,7c1.6,1.7,4.4,2.1,6.4,0.6l2.9-2.2c0.7-0.5,1.7-1,2.6-1
				c1.2,0,1.9,1.2,2.1,3.5L28.1,28.2z"/>
		</g>
		<g id="icon-nameNumberComponent">
			<path d="M17.2,42.4h-8v-24c-2.2,1.8-4.8,3.2-7.6,4.1l-0.9,0.3v-7.5l0.5-0.2c1.6-0.5,3.5-1.6,5.4-3.1c1.9-1.5,3.2-3.2,3.9-5.2
			l0.2-0.5h6.6V42.4z M10.6,41h5.2V7.9h-4.2c-0.8,2-2.2,3.8-4.2,5.3c-1.9,1.5-3.7,2.5-5.3,3.1v4.5c2.8-1,5.2-2.6,7.3-4.5l1.2-1.1V41
			z"/>
			<path d="M37.5,43c-3.6,0-6.5-1.4-8.6-4.1c-2.2-2.7-3.2-7.4-3.2-14.2c0-3.3,0.3-6.1,0.9-8.5c0.6-2.4,1.5-4.4,2.7-5.9
				c2-2.5,4.8-3.8,8.3-3.8c3.5,0,6.4,1.3,8.4,3.8c1.2,1.5,2.1,3.5,2.6,5.9c0.6,2.4,0.9,5.3,0.9,8.6c0,6.6-1.2,11.5-3.5,14.5
				C43.8,41.7,41,43,37.5,43z M37.5,7.9c-3.1,0-5.5,1.1-7.2,3.2c-2.1,2.7-3.2,7.3-3.2,13.5c0,6.4,1,10.9,2.9,13.3
				c1.9,2.4,4.4,3.6,7.5,3.6c3.1,0,5.5-1.1,7.2-3.2c2.1-2.7,3.2-7.3,3.2-13.6c0-6.3-1.1-10.9-3.2-13.6C43,9,40.6,7.9,37.5,7.9z
				M37.5,37.5c-1,0-1.8-0.3-2.6-0.9c-0.7-0.6-1.3-1.7-1.8-3.4c-0.4-1.6-0.6-4.4-0.6-8.5c0-4.1,0.2-7,0.7-8.8
				c0.4-1.5,0.9-2.5,1.7-3.1c0.8-0.6,1.6-0.9,2.6-0.9c1,0,1.8,0.3,2.6,0.9c0.7,0.6,1.3,1.7,1.8,3.4c0.4,1.6,0.6,4.4,0.6,8.5
				c0,4.1-0.2,7-0.7,8.8C41.4,35,40.8,36,40,36.6C39.3,37.2,38.4,37.5,37.5,37.5z M37.5,13.4c-0.6,0-1.2,0.2-1.7,0.6
				c-0.5,0.4-0.9,1.2-1.2,2.4c-0.4,1.7-0.7,4.5-0.7,8.4c0,4,0.2,6.7,0.6,8.1c0.5,1.7,1,2.4,1.3,2.7c0.5,0.4,1,0.6,1.7,0.6
				c0.6,0,1.2-0.2,1.7-0.6c0.5-0.4,0.9-1.2,1.2-2.4c0.4-1.6,0.7-4.5,0.7-8.4c0-4-0.2-6.7-0.6-8.1c-0.5-1.7-1-2.4-1.3-2.7l0,0
				C38.7,13.6,38.1,13.4,37.5,13.4z"/>
		</g>
		<g id="icon-imagesComponent">
			<path d="M46.6,5.7L20.3,1c-1.3-0.2-2.5,0.6-2.7,1.9l-0.2,1L4.7,6.2c-2.1,0.4-3.6,2.4-3.2,4.6l6,34c0.4,2.1,2.4,3.6,4.6,3.2
				l10.5-1.9L38.9,49c0.1,0,0.3,0,0.4,0c1.1,0,2.1-0.8,2.3-1.9l6.8-38.7C48.7,7.1,47.8,5.9,46.6,5.7z M5,7.7l12-2.1L16,12
				c-0.2-0.2-0.4-0.4-0.6-0.6c-1.4-1-3.2-0.9-4.6,0.1c-1.4,1-1.9,2.8-1.4,4.4c0.5,1.6,2,2.7,3.7,2.7c0.2,0,0.5,0,0.7-0.1
				c0.4-0.1,0.8-0.2,1.1-0.4l-1.7,9.5L12.7,27c0,0,0,0,0,0c-0.1-0.1-0.1-0.1-0.2-0.1c0,0,0,0-0.1,0c-0.1,0-0.1,0-0.2-0.1
				c0,0-0.1,0-0.1,0c0,0,0,0-0.1,0c-0.1,0-0.1,0-0.2,0c0,0,0,0,0,0c-0.2,0.1-0.4,0.2-0.4,0.4c0,0,0,0.1,0,0.1c0,0,0,0.1,0,0.1
				c-0.2,0.5-2.3,7.2-3.4,10.6L3.1,10.5C2.9,9.2,3.7,8,5,7.7z M15,16c-0.6,0.9-1.7,1.2-2.7,0.9c-1-0.4-1.6-1.4-1.5-2.4
				c0.1-1.1,0.9-1.9,1.9-2.1c0.1,0,0.3,0,0.4,0c1.1,0,2.1,0.8,2.3,1.9C15.5,14.8,15.3,15.4,15,16z M27.6,45.4l-14.7-2.6
				c-0.4-0.1-0.7-0.5-0.6-0.9l1.3-7.7c0.4-0.4,6.5-8.3,7.1-9.2L27.6,45.4z M11.8,46.4c-1.3,0.2-2.5-0.6-2.7-1.9l-0.7-3.8
				c0.1-0.1,2.9-8.3,3.9-11.6l0.5,0.6l-2.1,11.9c-0.2,1.3,0.6,2.5,1.9,2.7l5.5,1L11.8,46.4z M40.1,46.8c-0.1,0.4-0.5,0.7-0.9,0.6
				l-9.8-1.7l-3.5-10.3L36.1,20l5.7,17.3L40.1,46.8z M42.4,34l-5.2-16c-0.1-0.3-0.3-0.5-0.6-0.5c-0.3,0-0.6,0.1-0.8,0.3L25.3,33.6
				l-3.5-10.3l0,0c-0.1-0.3-0.3-0.5-0.6-0.6c-0.3-0.1-0.6,0-0.8,0.3c0,0-0.1,0.1-0.1,0.1c-0.4,0.5-3.9,5.1-6.2,8l4.9-27.8
				c0.1-0.4,0.5-0.7,0.9-0.6l26.3,4.6c0.4,0.1,0.7,0.5,0.6,0.9L42.4,34z"/>
			<path d="M25.7,7.8c-1.4-0.3-2.8,0.3-3.7,1.3c-0.9,1.1-1.2,2.6-0.7,3.9c0.5,1.3,1.6,2.3,3,2.5c0.2,0,0.5,0.1,0.7,0.1
				c2,0,3.7-1.6,3.9-3.6C29.1,10,27.7,8.2,25.7,7.8z M27.3,12.1c-0.2,1.2-1.4,2.1-2.6,1.9c-1.2-0.1-2.2-1.2-2.1-2.5
				c0.1-1.2,1.1-2.2,2.3-2.2c0.1,0,0.3,0,0.4,0C26.7,9.6,27.6,10.8,27.3,12.1z"/>
		</g>
		<g id="icon-imageEffectComponent">
			<path d="M41.2,1.5h-2.9c0,4.1-3.3,7.3-7.3,7.3v2.9c4.1,0,7.3,3.3,7.3,7.3h2.9c0-4.1,3.3-7.3,7.3-7.3V8.8
				C44.4,8.8,41.2,5.6,41.2,1.5z M39.7,13.8c-0.9-1.4-2.1-2.7-3.5-3.5c1.4-0.9,2.7-2.1,3.5-3.5c0.9,1.4,2.1,2.7,3.5,3.5
				C41.8,11.2,40.6,12.4,39.7,13.8z"/>
			<path d="M13.3,23.5v2.9c5.7,0,10.3,4.6,10.3,10.3h2.9c0-5.7,4.6-10.3,10.3-10.3v-2.9c-5.7,0-10.3-4.6-10.3-10.3h-2.9
				C23.5,18.9,18.9,23.5,13.3,23.5z M25,19.3c1.3,2.4,3.3,4.4,5.7,5.7c-2.4,1.3-4.4,3.3-5.7,5.7c-1.3-2.4-3.3-4.4-5.7-5.7
				C21.7,23.7,23.7,21.7,25,19.3z"/>
			<polygon points="45.6,45.6 4.4,45.6 4.4,4.4 20.6,4.4 20.6,1.5 1.5,1.5 1.5,48.5 48.5,48.5 48.5,29.4 45.6,29.4 			"/>
			<rect x="45.6" y="23.5" width="2.9" height="2.9"/>
			<rect x="23.5" y="1.5" width="2.9" height="2.9"/>
		</g>
		<g id="icon-imageUploadComponent">
			<circle cx="19" cy="17.4" r="3.4"/>
			<path d="M46.5,29.8C45,28.3,43,27.3,40.8,27V9.9c0-1.8-0.7-3.5-1.9-4.7c-1.2-1.2-2.8-1.9-4.7-1.9H7.1
				c-1.8,0-3.5,0.7-4.7,1.9C1.3,6.5,0.6,8.1,0.6,9.9v21.5v2v4.3c0,1.8,0.7,3.5,1.9,4.7c1.2,1.2,2.8,1.9,4.7,1.9h26.2
				c1.7,1.4,3.9,2.3,6.3,2.3c2.8,0,5.2-1.1,7-2.9c1.8-1.8,2.9-4.2,2.9-7C49.4,34,48.3,31.5,46.5,29.8z M3,9.9c0-1.1,0.5-2.1,1.2-2.8
				C5,6.3,6,5.9,7.1,5.9h27.1c1.1,0,2.1,0.5,2.9,1.2s1.2,1.8,1.2,2.9v14.6l-6.9-6.9c-0.5-0.5-1.3-0.5-1.8,0L19.2,28.1l-7-7.1
				c-0.5-0.5-1.3-0.5-1.8,0L3,28.5V9.9z M7.1,42L7.1,42c-1.1-0.1-2.1-0.6-2.9-1.3C3.5,39.9,3,38.9,3,37.8v-4.3V32l8.3-8.3l7,7
				c0.5,0.5,1.3,0.5,1.8,0l10.4-10.4l6.8,6.9c-0.1,0-0.3,0.1-0.4,0.1c-0.2,0-0.4,0.1-0.6,0.2c-0.2,0-0.4,0.1-0.6,0.2
				c-0.1,0-0.2,0.1-0.4,0.2c-0.2,0.1-0.3,0.1-0.5,0.2c-0.2,0.1-0.5,0.3-0.7,0.4c-0.1,0.1-0.2,0.1-0.4,0.2c-0.1,0-0.1,0.1-0.2,0.1
				c-0.4,0.3-0.8,0.6-1.1,1c-1.8,1.8-2.9,4.2-2.9,7c0,0.7,0.1,1.4,0.2,2.1c0,0.2,0.1,0.3,0.1,0.5c0.1,0.5,0.3,0.9,0.5,1.4v0
				c0.2,0.4,0.4,0.8,0.6,1.1H7.1z M44.7,42c-1.4,1.4-3.2,2.1-5.2,2.1c-2,0-3.8-0.8-5.1-2.1c-0.2-0.2-0.4-0.4-0.6-0.6
				c-0.1-0.1-0.3-0.3-0.4-0.5c-0.2-0.2-0.3-0.5-0.5-0.8c-0.1-0.2-0.2-0.3-0.3-0.5c-0.1-0.2-0.2-0.5-0.2-0.8c0-0.2-0.1-0.4-0.2-0.6
				c-0.1-0.5-0.1-1-0.1-1.5c0-2.1,0.8-3.9,2.1-5.2c1.3-1.4,3.2-2.1,5.2-2.1c2.1,0,3.9,0.8,5.2,2.1c1.4,1.4,2.1,3.2,2.1,5.2
				C46.9,38.8,46,40.6,44.7,42z"/>
			<path d="M40.4,31.8c-0.1-0.1-0.2-0.2-0.4-0.3c-0.1,0-0.3-0.1-0.4-0.1c0,0,0,0,0,0c0,0,0,0,0,0c-0.1,0-0.3,0-0.4,0.1
				c-0.1,0-0.3,0.1-0.4,0.3l-2.9,2.9c-0.5,0.5-0.5,1.3,0,1.8c0.5,0.5,1.3,0.5,1.8,0l0.7-0.7v5.1c0,0.7,0.6,1.3,1.3,1.3
				c0.7,0,1.3-0.6,1.3-1.3v-5.1l0.7,0.7c0.5,0.5,1.3,0.5,1.8,0c0.5-0.5,0.5-1.3,0-1.8L40.4,31.8z"/>
		</g>
		<g id="icon-textComponent">
			<path d="M35.5,6.8V4c-0.2,0-0.5,0-0.8,0l-1.2,0l-0.2,0.2c-0.1,0.1-0.3,0.3-0.6,0.4c-0.3,0.1-0.5,0.2-0.8,0.2
			l-0.9-0.1h-8l-5.9,0l-3.2,0l-0.5,0.1H10c-3.5,0-5.4,0-5.8-0.1L2.7,4L0.5,4v2.4v8.1c0.2,0.3,0.7,0.7,1.5,1.2c0.1,0,0.3-0.1,0.6-0.4
			c0.2-0.2,0.4-0.5,0.5-0.9c0.2-0.6,0.4-1.4,0.7-2.3c0.2-0.9,0.4-1.6,0.6-2.1C4.5,9.7,4.7,9.4,5,9.2c0.3-0.2,1-0.4,2-0.7
			c1-0.2,2-0.4,2.7-0.4c2,0,3.4,0.1,4.1,0.2c0.1,0,0.3,0.1,0.4,0.2c0.1,0.1,0.1,0.2,0.2,0.4c0,0.2,0.1,0.7,0.1,1.6
			c0,0.8,0,1.8,0,2.8c0,1,0,2.1,0,3.2l0.1,11.7c0,4.4,0,8.4-0.2,11.9c-0.1,0.6-0.2,1.2-0.3,1.5c-0.4,0.2-1.8,0.7-4.4,1.4
			c-1.1,0.3-1.8,0.7-2.2,1.3v0.2l0,0.7c0,0.1,0,0.3,0.1,0.7c0.4,0,1,0,1.9-0.1c2.7-0.3,4.8-0.4,6.4-0.4c3,0,5.2,0.1,6.5,0.2
			c1.4,0.2,3.1,0.3,5.1,0.3c0.4,0,0.7,0,0.9,0c0.1-0.3,0.1-0.6,0.1-0.8c0-0.1,0-0.5-0.1-1.4c-0.4-0.2-0.8-0.3-1.4-0.5
			c-0.3-0.1-0.7-0.2-1.2-0.3c-0.5-0.1-0.9-0.3-1.2-0.4c-0.3-0.1-0.5-0.1-0.5-0.1c-0.7-0.1-1.5-0.4-2.4-0.9c-0.2-0.7-0.3-1.5-0.3-2.3
			l0-4l-0.1-9.8v-9.1l0-4.2c0-0.7,0-2,0.2-3.7c0.6-0.1,1.2-0.1,1.8-0.1c0.8,0,1.8,0,3,0c1.2,0,2.2,0,2.8,0c0.6,0,1,0,1.2,0.1
			c0.3,0.1,0.5,0.2,0.7,0.5c0,0,0.1,0.3,0.2,0.8c0.1,0.5,0.2,1.1,0.3,1.8c0.1,0.7,0.3,1.3,0.4,1.7c0.5,1.6,1,2.7,1.5,3.5
			c0.5-0.1,1.2-0.2,1.9-0.5c0.1-0.3,0.1-0.8,0.1-1.4l0-1.6l0-2.7C35.5,8,35.5,6.8,35.5,6.8z"/>
			<path d="M48.3,39h-2.2V11h2.2c0.6,0,1-0.2,1.2-0.5c0.2-0.3,0.1-0.7-0.3-1.2l-3.5-4.4c-0.4-0.5-0.8-0.7-1.3-0.7
				c-0.5,0-1,0.2-1.3,0.7l-3.5,4.4c-0.4,0.5-0.5,0.9-0.3,1.2c0.2,0.3,0.5,0.5,1.2,0.5h2.2V39h-2.2c-0.6,0-1,0.2-1.2,0.5
				c-0.2,0.3-0.1,0.7,0.3,1.2l3.5,4.4c0.4,0.5,0.8,0.7,1.3,0.7c0.5,0,1-0.2,1.3-0.7l3.5-4.4c0.4-0.5,0.5-0.9,0.3-1.2
				C49.3,39.2,48.9,39,48.3,39z"/>
		</g>
		<g id="icon-plainTextComponent">
			<path d="M35.3,7.2V4.4c-0.2,0-0.5,0-0.8,0l-1.1,0l-0.2,0.2c-0.1,0.1-0.3,0.3-0.6,0.4c-0.3,0.1-0.5,0.2-0.8,0.2L31,5.2h-7.9l-5.8,0
				l-3.1,0l-0.5,0.1h-3.5c-3.4,0-5.3,0-5.7-0.1L3.1,4.4L1,4.4v2.3v8c0.2,0.3,0.7,0.7,1.5,1.2c0.1,0,0.3-0.1,0.6-0.3
				c0.2-0.2,0.4-0.5,0.5-0.9c0.2-0.6,0.4-1.3,0.6-2.3c0.2-0.9,0.4-1.6,0.6-2C4.9,10,5.1,9.7,5.4,9.5c0.3-0.2,0.9-0.4,2-0.7
				c1-0.2,1.9-0.4,2.7-0.4c2,0,3.3,0.1,4,0.2c0.1,0,0.3,0.1,0.4,0.2c0.1,0.1,0.1,0.2,0.2,0.4c0,0.2,0.1,0.7,0.1,1.5
				c0,0.8,0,1.7,0,2.8c0,1,0,2.1,0,3.2l0.1,11.5c0,4.3,0,8.2-0.2,11.6c-0.1,0.6-0.2,1.1-0.3,1.5c-0.4,0.2-1.8,0.7-4.3,1.3
				c-1,0.3-1.7,0.7-2.1,1.3v0.2l0,0.7c0,0.1,0,0.3,0.1,0.7c0.4,0,1,0,1.9-0.1c2.6-0.3,4.7-0.4,6.3-0.4c3,0,5.1,0.1,6.4,0.2
				c1.4,0.2,3.1,0.3,5,0.3c0.4,0,0.7,0,0.9,0c0.1-0.3,0.1-0.6,0.1-0.8c0-0.1,0-0.5-0.1-1.3C28,43.3,27.5,43.2,27,43
				c-0.3-0.1-0.7-0.2-1.2-0.3c-0.5-0.1-0.9-0.3-1.2-0.3c-0.3-0.1-0.4-0.1-0.5-0.1c-0.7-0.1-1.5-0.4-2.4-0.9c-0.2-0.7-0.3-1.5-0.3-2.3
				l0-4l-0.1-9.7v-8.9l0-4.1c0-0.7,0-1.9,0.2-3.7c0.6-0.1,1.2-0.1,1.8-0.1c0.8,0,1.8,0,3,0c1.2,0,2.1,0,2.8,0c0.6,0,1,0,1.1,0.1
				c0.3,0.1,0.5,0.2,0.7,0.5c0,0,0.1,0.3,0.2,0.8c0.1,0.5,0.2,1.1,0.3,1.8c0.1,0.7,0.3,1.3,0.4,1.7c0.5,1.5,1,2.7,1.5,3.4
				c0.5-0.1,1.1-0.2,1.8-0.5c0.1-0.3,0.1-0.8,0.1-1.4l0-1.6l0-2.7C35.3,8.4,35.3,7.2,35.3,7.2z"/>
			<path d="M47.8,38.8h-2.2V11.2h2.2c0.6,0,1-0.2,1.1-0.5c0.2-0.3,0.1-0.7-0.3-1.2l-3.4-4.4c-0.4-0.5-0.8-0.7-1.3-0.7s-1,0.2-1.3,0.7
				l-3.4,4.4c-0.4,0.5-0.5,0.9-0.3,1.2c0.2,0.3,0.5,0.5,1.1,0.5h2.2v27.5h-2.2c-0.6,0-1,0.2-1.1,0.5c-0.2,0.3-0.1,0.7,0.3,1.2
				l3.4,4.4c0.4,0.5,0.8,0.7,1.3,0.7c0.5,0,1-0.2,1.3-0.7l3.4-4.4c0.4-0.5,0.5-0.9,0.3-1.2C48.8,38.9,48.4,38.8,47.8,38.8z"/>
		</g>
		<g id="icon-textEffectComponent">
			<path d="M48,7.6c0.4,0,0.8-0.4,0.8-0.8V2c0-0.4-0.4-0.8-0.8-0.8h-4.7c-0.4,0-0.8,0.4-0.8,0.8v1.6H7.6V2c0-0.4-0.4-0.8-0.8-0.8H2
				C1.6,1.3,1.3,1.6,1.3,2v4.7c0,0.4,0.4,0.8,0.8,0.8h1.6v34.8H2c-0.4,0-0.8,0.4-0.8,0.8V48c0,0.4,0.4,0.8,0.8,0.8h4.7
				c0.4,0,0.8-0.4,0.8-0.8v-1.6h34.8V48c0,0.4,0.4,0.8,0.8,0.8H48c0.4,0,0.8-0.4,0.8-0.8v-4.7c0-0.4-0.4-0.8-0.8-0.8h-1.6V7.6H48z
				M44.8,42.4h-1.6c-0.4,0-0.8,0.4-0.8,0.8v1.6H7.6v-1.6c0-0.4-0.4-0.8-0.8-0.8H5.2V7.6h1.6c0.4,0,0.8-0.4,0.8-0.8V5.2h34.8v1.6
				c0,0.4,0.4,0.8,0.8,0.8h1.6V42.4z"/>
			<path d="M37.3,10H12.7c-0.4,0-0.8,0.4-0.8,0.8v7.1c0,0.4,0.4,0.8,0.8,0.8h4c0.4,0,0.8-0.4,0.8-0.8v-2.4h4.7v19h-4
				c-0.4,0-0.8,0.4-0.8,0.8v4c0,0.4,0.4,0.8,0.8,0.8h13.5c0.4,0,0.8-0.4,0.8-0.8v-4c0-0.4-0.4-0.8-0.8-0.8h-4v-19h4.7v2.4
				c0,0.4,0.4,0.8,0.8,0.8h4c0.4,0,0.8-0.4,0.8-0.8v-7.1C38.1,10.3,37.7,10,37.3,10z"/>
		</g>
		<g id="icon-backgroundColorComponent">
			<path d="M20.2,25.7c3.9,0,7.1-3.2,7.1-7.1s-3.2-7.1-7.1-7.1s-7.1,3.2-7.1,7.1C13.1,22.5,16.3,25.7,20.2,25.7z
				M20.2,13.6c2.8,0,5,2.2,5,5s-2.2,5-5,5s-5-2.2-5-5C15.2,15.8,17.4,13.6,20.2,13.6z"/>
			<path d="M44.2,5.6H5.8c-2.9,0-5.2,2.3-5.2,5.2v28.3c0,2.9,2.3,5.2,5.2,5.2h38.3c2.9,0,5.2-2.3,5.2-5.2V10.9
				C49.4,8,47.1,5.6,44.2,5.6z M5.8,7.7h38.3c1.7,0,3.1,1.4,3.1,3.1v20.7L41,22.6c-1-1.4-2.5-2.2-4.2-2.2c-1.7,0-3.3,0.8-4.3,2.1
				l-7.1,9.7c-1,1.4-2.9,1.7-4.3,0.8l-5.3-3.6c-1.8-1.2-4-1.2-5.8,0l-7.3,4.9V10.9C2.7,9.1,4.1,7.7,5.8,7.7z M44.2,42.3H5.8
				c-1.7,0-3.1-1.4-3.1-3.1v-2.3l8.5-5.6c1.1-0.7,2.4-0.7,3.5,0l5.3,3.6c2.3,1.6,5.5,1,7.1-1.3l7.1-9.7c0.6-0.8,1.6-1.3,2.6-1.3
				c1,0,2,0.5,2.5,1.3l8,11.3v4C47.3,40.9,45.9,42.3,44.2,42.3z"/>
		</g>
		<g id="icon-templatesComponent">
			<path d="M46.6,5.7L20.3,1c-1.3-0.2-2.5,0.6-2.7,1.9l-0.2,1L4.7,6.2c-2.1,0.4-3.6,2.4-3.2,4.6l6,34c0.4,2.1,2.4,3.6,4.6,3.2
				l10.5-1.9L38.9,49c0.1,0,0.3,0,0.4,0c1.1,0,2.1-0.8,2.3-1.9l6.8-38.7C48.7,7.1,47.8,5.9,46.6,5.7z M5,7.7l12-2.1L16,12
				c-0.2-0.2-0.4-0.4-0.6-0.6c-1.4-1-3.2-0.9-4.6,0.1c-1.4,1-1.9,2.8-1.4,4.4c0.5,1.6,2,2.7,3.7,2.7c0.2,0,0.5,0,0.7-0.1
				c0.4-0.1,0.8-0.2,1.1-0.4l-1.7,9.5L12.7,27c0,0,0,0,0,0c-0.1-0.1-0.1-0.1-0.2-0.1c0,0,0,0-0.1,0c-0.1,0-0.1,0-0.2-0.1
				c0,0-0.1,0-0.1,0c0,0,0,0-0.1,0c-0.1,0-0.1,0-0.2,0c0,0,0,0,0,0c-0.2,0.1-0.4,0.2-0.4,0.4c0,0,0,0.1,0,0.1c0,0,0,0.1,0,0.1
				c-0.2,0.5-2.3,7.2-3.4,10.6L3.1,10.5C2.9,9.2,3.7,8,5,7.7z M15,16c-0.6,0.9-1.7,1.2-2.7,0.9c-1-0.4-1.6-1.4-1.5-2.4
				c0.1-1.1,0.9-1.9,1.9-2.1c0.1,0,0.3,0,0.4,0c1.1,0,2.1,0.8,2.3,1.9C15.5,14.8,15.3,15.4,15,16z M27.6,45.4l-14.7-2.6
				c-0.4-0.1-0.7-0.5-0.6-0.9l1.3-7.7c0.4-0.4,6.5-8.3,7.1-9.2L27.6,45.4z M11.8,46.4c-1.3,0.2-2.5-0.6-2.7-1.9l-0.7-3.8
				c0.1-0.1,2.9-8.3,3.9-11.6l0.5,0.6l-2.1,11.9c-0.2,1.3,0.6,2.5,1.9,2.7l5.5,1L11.8,46.4z M40.1,46.8c-0.1,0.4-0.5,0.7-0.9,0.6
				l-9.8-1.7l-3.5-10.3L36.1,20l5.7,17.3L40.1,46.8z M42.4,34l-5.2-16c-0.1-0.3-0.3-0.5-0.6-0.5c-0.3,0-0.6,0.1-0.8,0.3L25.3,33.6
				l-3.5-10.3l0,0c-0.1-0.3-0.3-0.5-0.6-0.6c-0.3-0.1-0.6,0-0.8,0.3c0,0-0.1,0.1-0.1,0.1c-0.4,0.5-3.9,5.1-6.2,8l4.9-27.8
				c0.1-0.4,0.5-0.7,0.9-0.6l26.3,4.6c0.4,0.1,0.7,0.5,0.6,0.9L42.4,34z"/>
			<path d="M25.7,7.8c-1.4-0.3-2.8,0.3-3.7,1.3c-0.9,1.1-1.2,2.6-0.7,3.9c0.5,1.3,1.6,2.3,3,2.5c0.2,0,0.5,0.1,0.7,0.1
				c2,0,3.7-1.6,3.9-3.6C29.1,10,27.7,8.2,25.7,7.8z M27.3,12.1c-0.2,1.2-1.4,2.1-2.6,1.9c-1.2-0.1-2.2-1.2-2.1-2.5
				c0.1-1.2,1.1-2.2,2.3-2.2c0.1,0,0.3,0,0.4,0C26.7,9.6,27.6,10.8,27.3,12.1z"/>
		</g>
		<g id="icon-side-prev">
			<path d="M48.222,26.264c-0.426,0-0.772,0.348-0.772,0.773c0,5.056-10.282,9.322-22.451,9.324c-12.171,0-22.452-4.271-22.452-9.321
			c0-2.335,2.311-4.679,6.337-6.431c4.227-1.838,9.848-2.856,15.844-2.883l-2.758,2.754c-0.301,0.303-0.301,0.793,0,1.094
			c0.152,0.152,0.352,0.227,0.549,0.227s0.396-0.076,0.547-0.227l4.633-4.629l-4.633-4.633c-0.302-0.301-0.793-0.301-1.095,0
			c-0.301,0.303-0.301,0.794,0,1.095l2.771,2.771c-6.211,0.028-12.052,1.094-16.472,3.014C3.581,21.229,1,24.018,1,27.042
			c0,6.099,10.543,10.872,24,10.872c13.458-0.002,24-4.779,24-10.876C48.996,26.611,48.648,26.264,48.222,26.264z"/>
		</g>
		<g id="icon-side-next">
			<path d="M49,22.958c0-6.098-10.543-10.871-24-10.871S1,16.862,1,22.958c0,0.428,0.347,0.774,0.774,0.774
			s0.774-0.347,0.774-0.774c0-5.054,10.283-9.322,22.452-9.322s22.451,4.27,22.451,9.322c0,5.014-10.131,9.253-22.181,9.317
			l2.758-2.755c0.303-0.3,0.303-0.793,0-1.095c-0.302-0.3-0.792-0.3-1.095,0l-4.633,4.629l4.633,4.632
			c0.152,0.153,0.351,0.227,0.549,0.227c0.199,0,0.397-0.076,0.548-0.227c0.302-0.3,0.302-0.792,0-1.096l-2.771-2.767
			C38.59,33.758,49,29.015,49,22.958z"/>
		</g>
		<g id="icon-search">
			<path fill="none" d="M20.893,31.419c6.085,0,11.036-4.951,11.036-11.036c0-6.085-4.951-11.036-11.036-11.036
				S9.857,14.297,9.857,20.383C9.857,26.468,14.808,31.419,20.893,31.419z"/>
			<path d="M42.146,40.997l-11.49-11.49c2.238-2.394,3.62-5.597,3.62-9.124C34.275,13.003,28.271,7,20.893,7
				S7.51,13.003,7.51,20.383c0,7.379,6.003,13.383,13.382,13.383c3.007,0,5.776-1.009,8.014-2.689l11.58,11.58
				C40.708,42.878,41.003,43,41.316,43c0.314,0,0.609-0.122,0.828-0.343c0.223-0.222,0.346-0.517,0.346-0.831
				C42.49,41.513,42.367,41.218,42.146,40.997z M20.893,9.347c6.085,0,11.036,4.951,11.036,11.036c0,6.085-4.951,11.036-11.036,11.036
				S9.857,26.468,9.857,20.383C9.857,14.297,14.808,9.347,20.893,9.347z"/>
		</g>
		<g id="icon-view">
			<path d="M25.1,11.2c-5.6-5.6-14.7-5.6-20.3,0L1,15l3.8,3.8C7.7,21.6,11.4,23,15,23s7.4-1.4,10.2-4.2L29,15L25.1,11.2z M24.6,18.1
				c-5.2,5.2-13.8,5.2-19,0L2.4,15l3.1-3.1c5.2-5.2,13.8-5.2,19,0l3.2,3.2L24.6,18.1z"/>
			<path d="M14.5,11.2c-1.8,0-3.3,1.5-3.3,3.3c0,0.3,0.2,0.5,0.5,0.5s0.5-0.2,0.5-0.5c0-1.3,1.1-2.4,2.4-2.4c0.3,0,0.5-0.2,0.5-0.5
				S14.8,11.2,14.5,11.2z"/>
			<path d="M15,8.9c-3.4,0-6.1,2.8-6.1,6.1s2.8,6.1,6.1,6.1s6.1-2.8,6.1-6.1S18.4,8.9,15,8.9z M15,20.2c-2.9,0-5.2-2.3-5.2-5.2
				s2.3-5.2,5.2-5.2s5.2,2.3,5.2,5.2S17.8,20.2,15,20.2z"/>
		</g>
		<g id="icon-share">
			<path d="M21.8,18.3c-1.3,0-2.5,0.6-3.3,1.6l-6.4-3.6c0.2-0.4,0.2-0.9,0.2-1.4c0-0.5-0.1-0.9-0.2-1.4l6.4-3.6c0.8,1,2,1.6,3.3,1.6
			c2.3,0,4.2-1.9,4.2-4.2s-1.9-4.2-4.2-4.2s-4.2,1.9-4.2,4.2c0,0.5,0.1,0.9,0.2,1.4l-6.4,3.6c-0.8-1-2-1.6-3.3-1.6
			C5.9,10.8,4,12.7,4,15s1.9,4.2,4.2,4.2c1.3,0,2.5-0.6,3.3-1.6l6.4,3.6c-0.2,0.4-0.2,0.9-0.2,1.4c0,2.3,1.9,4.2,4.2,4.2
			s4.2-1.9,4.2-4.2S24.1,18.3,21.8,18.3z M21.8,4.6c1.6,0,2.9,1.3,2.9,2.9s-1.3,2.9-2.9,2.9S19,9.1,19,7.5S20.2,4.6,21.8,4.6z
			M8.2,17.9c-1.6,0-2.9-1.3-2.9-2.9s1.3-2.9,2.9-2.9S11,13.4,11,15S9.8,17.9,8.2,17.9z M21.8,25.4c-1.6,0-2.9-1.3-2.9-2.9
			c0-1.6,1.3-2.9,2.9-2.9s2.9,1.3,2.9,2.9C24.7,24.1,23.4,25.4,21.8,25.4z"/>
		</g>
		<g id="icon-save">
			<path d="M22.8,4.5h-1.1H9.1H5.1v22.1h3.2h14.9h3.6V8.4L22.8,4.5z M20.9,5.4v6.3H10V5.4H20.9z M9.1,25.7v-8.6h13.1v8.6H9.1z
				M25.8,25.7h-2.7v-9.5H8.2v9.5H6V5.4h3.2v7.2h12.6V5.4h0.7l3.3,3.3V25.7z"/>
			<path d="M10.9,19.4h3.2c0.2,0,0.5-0.2,0.5-0.5s-0.2-0.5-0.5-0.5h-3.2c-0.2,0-0.5,0.2-0.5,0.5S10.7,19.4,10.9,19.4z"/>
			<path d="M15.4,20.3h-4.5c-0.2,0-0.5,0.2-0.5,0.5c0,0.2,0.2,0.5,0.5,0.5h4.5c0.2,0,0.5-0.2,0.5-0.5C15.9,20.5,15.7,20.3,15.4,20.3z"
				/>
			<path d="M16.5,20.4c-0.1,0.1-0.1,0.2-0.1,0.3c0,0.1,0,0.2,0.1,0.3c0.1,0.1,0.2,0.1,0.3,0.1c0.1,0,0.2,0,0.3-0.1
				c0.1-0.1,0.1-0.2,0.1-0.3c0-0.1,0-0.2-0.1-0.3C17,20.2,16.6,20.2,16.5,20.4z"/>
			<path d="M20,6.3h-2.7v4.5H20V6.3z M19.1,9.9h-0.9V7.2h0.9V9.9z"/>
		</g>
		<g id="icon-download">
			<path d="M28,19.5c-0.4,0-0.7,0.3-0.7,0.7v2.7c0,1.5-1.2,2.8-2.8,2.8h-19c-1.5,0-2.8-1.2-2.8-2.8v-2.7c0-0.4-0.3-0.7-0.7-0.7
				s-0.7,0.3-0.7,0.7v2.7c0,2.3,1.9,4.2,4.2,4.2h19c2.3,0,4.2-1.9,4.2-4.2v-2.7C28.7,19.8,28.3,19.5,28,19.5z"/>
			<path d="M23.7,22.2H6.3c-0.4,0-0.7,0.3-0.7,0.7s0.3,0.7,0.7,0.7h17.5c0.4,0,0.7-0.3,0.7-0.7C24.4,22.5,24.1,22.2,23.7,22.2z"/>
			<path d="M22,12.4c-0.3-0.3-0.7-0.3-1-0.1l-5.4,4.8V3.7C15.7,3.3,15.4,3,15,3c-0.4,0-0.7,0.3-0.7,0.7v13.5l-5.4-4.8
				c-0.3-0.3-0.7-0.2-1,0.1c-0.3,0.3-0.2,0.7,0.1,1l5.8,5.2c0.3,0.3,0.7,0.4,1.2,0.4c0.4,0,0.8-0.1,1.2-0.4l5.8-5.2
				C22.3,13.2,22.3,12.7,22,12.4z"/>
		</g>
		<g id="icon-setting">
			<path d="M50.323,21.222H45.458a1.868,1.868,0,0,1-1.321-3.188l3.44-3.439a2.679,2.679,0,0,0,0-3.787L43.192,6.423a2.742,2.742,0,0,0-3.787,0L35.966,9.862a1.867,1.867,0,0,1-3.188-1.32V3.677A2.68,2.68,0,0,0,30.1,1H23.9a2.68,2.68,0,0,0-2.677,2.677V8.542a1.867,1.867,0,0,1-3.188,1.32L14.6,6.423a2.742,2.742,0,0,0-3.787,0L6.423,10.808a2.679,2.679,0,0,0,0,3.787l3.44,3.439a1.868,1.868,0,0,1-1.321,3.188H3.677A2.68,2.68,0,0,0,1,23.9v6.2a2.68,2.68,0,0,0,2.677,2.678H8.542a1.868,1.868,0,0,1,1.321,3.188L6.423,39.4a2.679,2.679,0,0,0,0,3.787l4.384,4.384a2.74,2.74,0,0,0,3.787,0l3.439-3.44a1.868,1.868,0,0,1,3.188,1.321v4.865A2.68,2.68,0,0,0,23.9,53h6.2a2.68,2.68,0,0,0,2.677-2.677V45.458a1.868,1.868,0,0,1,3.188-1.321l3.439,3.44a2.742,2.742,0,0,0,3.787,0l4.384-4.384a2.679,2.679,0,0,0,0-3.787l-3.44-3.439a1.868,1.868,0,0,1,1.322-3.188h4.865A2.68,2.68,0,0,0,53,30.1V23.9A2.68,2.68,0,0,0,50.323,21.222ZM51.074,30.1a0.752,0.752,0,0,1-.751.751H45.458a3.794,3.794,0,0,0-2.683,6.477l3.44,3.439a0.751,0.751,0,0,1,0,1.063l-4.384,4.384a0.752,0.752,0,0,1-1.063,0l-3.439-3.44a3.794,3.794,0,0,0-6.477,2.683v4.865a0.752,0.752,0,0,1-.751.751H23.9a0.752,0.752,0,0,1-.751-0.751V45.458a3.735,3.735,0,0,0-2.342-3.505,3.837,3.837,0,0,0-1.476-.3,3.741,3.741,0,0,0-2.659,1.121l-3.439,3.44a0.751,0.751,0,0,1-1.063,0L7.785,41.83a0.751,0.751,0,0,1,0-1.063l3.44-3.439a3.793,3.793,0,0,0-2.683-6.476H3.677A0.752,0.752,0,0,1,2.926,30.1V23.9a0.752,0.752,0,0,1,.751-0.751H8.542a3.794,3.794,0,0,0,2.683-6.477l-3.44-3.439a0.751,0.751,0,0,1,0-1.063l4.384-4.384a0.751,0.751,0,0,1,1.063,0l3.439,3.439a3.794,3.794,0,0,0,6.477-2.682V3.677A0.752,0.752,0,0,1,23.9,2.926h6.2a0.752,0.752,0,0,1,.752.751V8.542a3.794,3.794,0,0,0,6.477,2.683l3.439-3.439a0.751,0.751,0,0,1,1.063,0l4.384,4.384a0.751,0.751,0,0,1,0,1.063l-3.44,3.439a3.794,3.794,0,0,0,2.683,6.477h4.865a0.751,0.751,0,0,1,.751.75v6.2ZM27,18.333A8.667,8.667,0,1,0,35.667,27,8.676,8.676,0,0,0,27,18.333Zm0,15.407A6.741,6.741,0,1,1,33.741,27,6.749,6.749,0,0,1,27,33.741Z"/>
		</g>
		<g id="icon-align-left">
			<polygon points="0.1,29.9 1.6,29.9 1.6,0.1 0.1,0.1 	"/>
			<polygon points="4.6,13.5 20.9,13.5 20.9,7.6 4.6,7.6 	"/>
			<polygon points="4.6,22.4 29.9,22.4 29.9,16.5 4.6,16.5 	"/>
		</g>
		<g id="icon-align-center">
			<polygon points="15,0.2 15,7.6 6.1,7.6 6.1,13.5 15,13.5 15,16.5 
			0.2,16.5 0.2,22.4 15,22.4 15,29.8 16.5,29.8 16.5,22.4 29.8,22.4 29.8,16.5 16.5,16.5 16.5,13.5 23.9,13.5 23.9,7.6 16.5,7.6 
			16.5,0.2 "/>
		</g>
		<g id="icon-align-right">
			<polygon points="28.3,29.8 29.8,29.8 29.8,0.2 28.3,0.2 	"/>
			<polygon points="9.1,13.5 25.3,13.5 25.3,7.6 9.1,7.6 	"/>
			<polygon points="0.2,22.4 25.3,22.4 25.3,16.5 0.2,16.5 	"/>
		</g>
		<g id="icon-align-top">
			<polygon points="0.3,1.8 29.7,1.8 29.7,0.3 0.3,0.3 	"/>
			<polygon points="16.5,20.9 22.4,20.9 22.4,4.7 16.5,4.7 	"/>
			<polygon points="7.6,29.7 13.5,29.7 13.5,4.7 7.6,4.7 	"/>
		</g>
		<g id="icon-align-vcenter">
			<polygon points="7.6,0.2 7.6,15 0.2,15 0.2,16.5 7.6,16.5 7.6,29.8 
			13.5,29.8 13.5,16.5 16.5,16.5 16.5,23.9 22.4,23.9 22.4,16.5 29.8,16.5 29.8,15 22.4,15 22.4,6.1 16.5,6.1 16.5,15 13.5,15 
			13.5,0.2 "/>
		</g>
		<g id="icon-align-bottom">
			<polygon points="0.1,29.9 29.9,29.9 29.9,28.4 0.1,28.4 	"/>
			<polygon points="16.5,25.4 22.4,25.4 22.4,9.1 16.5,9.1 	"/>
			<polygon points="7.6,25.4 13.5,25.4 13.5,0.1 7.6,0.1 	"/>
		</g>
		<g id="icon-align-vertical">
			<polygon points="6.1,18 23.9,18 23.9,12 6.1,12 	"/>
			<polygon points="0.2,26.9 29.8,26.9 29.8,25.4 0.2,25.4 	"/>
			<polygon points="0.2,4.6 29.8,4.6 29.8,3.1 0.2,3.1 	"/>
		</g>
		<g id="icon-align-horizontal">
			<polygon points="12,23.9 18,23.9 18,6.1 12,6.1 	"/>
			<polygon points="25.4,29.8 26.9,29.8 26.9,0.2 25.4,0.2 	"/>
			<polygon points="3.1,29.8 4.6,29.8 4.6,0.2 3.1,0.2 	"/>
		</g>
		<g id="icon-layer-top">
			<path d="M13.5,26.8v-15L8.3,17L6.2,15L15,6.2l8.8,8.8L21.7,17l-5.2-5.2v14.9h13.2v2.9H0.3v-2.9H13.5z M0.3,23.8v-2.9
			h10.3v2.9H0.3z M19.4,23.8v-2.9h10.3v2.9H19.4z M0.3,3.2V0.3h29.4v2.9H0.3z"/>
		</g>
		<g id="icon-layer-mtop">
			<path d="M13.5,26.8V5.9l-5.3,5.3L6.2,9.1L15,0.3l8.8,8.8l-2.1,2.1l-5.2-5.2v20.9h13.2v2.9H0.3v-2.9H13.5z M0.3,23.8
			v-2.9h10.3v2.9H0.3z M19.4,23.8v-2.9h10.3v2.9H19.4z M0.3,17.9V15h10.3v2.9H0.3z M19.4,17.9V15h10.3v2.9H19.4z"/>
		</g>
		<g id="icon-layer-bottom">
			<path d="M16.5,3.2v15l5.3-5.3l2.1,2.1L15,23.8L6.2,15L8.3,13l5.2,5.2V3.2H0.3V0.3h29.4v2.9
			C29.7,3.2,16.5,3.2,16.5,3.2z M19.4,9.1V6.2h10.3v2.9H19.4z M0.3,9.1V6.2h10.3v2.9H0.3z M0.3,29.7v-2.9h29.4v2.9H0.3z"/>
		</g>
		<g id="icon-layer-mbottom">
			<path d="M16.5,3.2v20.9l5.3-5.3l2.1,2.1L15,29.7l-8.8-8.8l2.1-2.1l5.2,5.2V3.2H0.3V0.3h29.4v2.9H16.5z M19.4,9.1V6.2
			h10.3v2.9H19.4z M0.3,9.1V6.2h10.3v2.9H0.3z M19.4,15v-2.9h10.3V15H19.4z M0.3,15v-2.9h10.3V15H0.3z"/>
		</g>
		<g id="icon-flip-v">
			<polygon points="0.3,16.5 29.7,29.7 29.7,16.5 	"/>
			<path d="M29.7,0.3L0.3,13.5h29.4C29.7,13.5,29.7,0.3,29.7,0.3z M28.2,2.6v9.5H7.2C7.2,12.1,28.2,2.6,28.2,2.6z"/>
		</g>
		<g id="icon-flip-h">
			<polygon points="13.5,0.4 0.4,29.6 13.5,29.6 	"/>
			<path d="M16.5,0.4v29.2h13.2C29.6,29.6,16.5,0.4,16.5,0.4z M17.9,7.2l9.4,21h-9.4C17.9,28.2,17.9,7.2,17.9,7.2z"/>
		</g>
		<g id="icon-t-group">
			<path d="M0.3,29.7h29.5V0.3H0.3V29.7z M12.1,17.9v5.9h11.8V12.1h-5.9V6.2H6.2v11.8H12.1z M3.2,26.8V3.2h23.6v23.6
			H3.2z M16.5,12.1l-4.4,0v4.4H7.6V7.6h8.8V12.1L16.5,12.1z M13.5,13.5h2.9v2.9h-2.9V13.5z M13.5,17.9l4.4,0v-4.4h4.4v8.8h-8.8V17.9
			L13.5,17.9z"/>
		</g>
		<g id="icon-t-ungroup">
			<path d="M20.9,9.1h8.9v20.8H9.1v-8.9H0.1V0.1h20.8C20.9,0.1,20.9,9.1,20.9,9.1z M12,12v6h6v-6H12z M3.1,18h6V9.1H18
			v-6H3.1V18z M26.9,12h-6V21H12v6h14.9C26.9,26.9,26.9,12,26.9,12z"/>
		</g>
		<g id="icon-t-lock">
			<path d="M23.8,10.6c1.6,0,2.9,1.3,2.9,2.9v13.1c0,1.6-1.3,2.9-2.9,2.9H6.2
			c-1.6,0-2.9-1.3-2.9-2.9V13.5c0-1.6,1.3-2.9,2.9-2.9h1.5V7.7c0-4.1,3.2-7.3,7.3-7.3s7.3,3.2,7.3,7.3v2.9H23.8z M6.2,26.7h17.5V13.5
			H6.2V26.7z M10.5,7.7v2.9h9.1V7.7c0-2.5-2-4.5-4.5-4.5S10.5,5.2,10.5,7.7z"/>
		</g>
		<g id="icon-t-duplicate">
			<polygon points="23.9,9.1 23.9,12 26.8,12 26.8,26.8 12,26.8 12,23.9 9,23.9 9,29.8 29.8,29.8 29.8,9.1 	"/>
			<path d="M0.2,20.9V0.2h20.7v20.7H0.2z M3.2,18h14.8V3.2H3.2V18z"/>
		</g>
		<g id="icon-t-delete">
			<path d="M12.1,3.4h5.8c0.3,0,1.5,0.1,1.5,1.4h-8.7C10.7,4.5,10.8,3.4,12.1,3.4z M20.8,7.8h5.8
				c0-1.6-1.3-2.9-2.9-2.9h-1.4c0-3.1-2.6-4.3-4.3-4.3h-5.8C9,0.6,7.8,3.2,7.8,4.9H6.3c-1.6,0-2.9,1.3-2.9,2.9h5.8H20.8z"/>
			<path d="M22.2,25.1c0,0.8-0.6,1.4-1.4,1.4H9.2c-0.8,0-1.4-0.6-1.4-1.4V10.6H4.9v14.5c0,2.4,1.9,4.3,4.3,4.3h11.6
				c2.4,0,4.3-1.9,4.3-4.3V10.7h-2.9V25.1z"/>
			<polygon points="10.7,26.5 13.6,26.5 13.6,10.7 10.7,10.7 	"/>
			<polygon points="16.5,26.5 19.3,26.5 19.3,10.7 16.5,10.7 	"/>
		</g>
		<g id="icon-text-bold">
			<path d="M20.6,14.4c2.5,1.4,4.3,4.1,4.3,7.2c0,4.5-3.7,8.2-8.2,8.2H5.1V0.2
			H15c4.5,0,8.2,3.7,8.2,8.2C23.2,10.7,22.3,12.9,20.6,14.4z M8.4,16.6v9.9h8.2c2.7,0,4.9-2.2,4.9-4.9s-2.2-4.9-4.9-4.9H8.4z M8.4,3.5
			v9.9H15c2.7,0,4.9-2.2,4.9-4.9S17.7,3.5,15,3.5H8.4z"/>
		</g>
		<g id="icon-text-italic">
			<path d="M10.1,1.9V0.3h16.4v1.6h-4.9c-0.9,0-1.6,0.7-1.6,1.6l-6.6,22.9
			c0,0.9,0.7,1.6,1.6,1.6h4.9v1.6H3.5v-1.6h4.9c0.9,0,1.6-0.7,1.6-1.6l6.6-22.9c0-0.9-0.7-1.6-1.6-1.6H10.1z"/>
		</g>
		<g id="icon-text-underline">
			<path d="M5.2,29.8v-3.3h19.7v3.3H5.2z M5.2,0.2h3.3v14
			c0,3.2,2.6,5.7,5.7,5.7l0,0h1.6c3.2,0,5.7-2.6,5.7-5.7c0,0,0,0,0,0V0.2h3.3V15c0,4.5-3.7,8.2-8.2,8.2c0,0,0,0,0,0h-3.3
			c-4.5,0-8.2-3.7-8.2-8.2l0,0V0.2z"/>
		</g>
		<g id="icon-text-aleft">
			<path d="M0.3,7.6V4.7h29.4v2.9H0.3z M0.3,13.5v-2.9h20.6v2.9H0.3z
	 		M0.3,19.4v-2.9h29.4v2.9H0.3z M0.3,25.3v-2.9h20.6v2.9H0.3z"/>
		</g>
		<g id="icon-text-acenter">
			<path d="M0.2,7.6v-3h29.6v3H0.2z M4.6,13.5v-3h20.7v3H4.6z M0.2,19.4v-3
			h29.6v3H0.2z M4.6,25.4v-3h20.7v3H4.6z"/>
		</g>
		<g id="icon-text-aright">
			<path d="M0.3,7.6V4.7h29.5v2.9H0.3z M9.1,13.5v-2.9h20.6v2.9H9.1z
	 		M0.3,19.4v-2.9h29.5v2.9H0.3z M9.1,25.3v-2.9h20.6v2.9H9.1z"/>
		</g>
		<g id="icon-text-ajustify">
			<path d="M0.3,7.6V4.7h29.5v2.9H0.3z M0.3,13.5v-2.9h29.5v2.9H0.3z
	 		M0.3,19.4v-2.9h29.5v2.9H0.3z M0.3,25.3v-2.9h29.5v2.9H0.3z"/>
		</g>
		<g id="icon-facebook">
			<path d="M28.777,49H18.449V27.479h-5.69v-9.883h5.69v-5.551C18.449,6.949,21.637,1,30.625,1c3.169,0,5.495,0.297,5.591,0.311
			l0.955,0.123l-0.229,9.25l-1.051-0.01c-0.004,0-2.363-0.023-4.939-0.023c-1.916,0-2.172,0.474-2.172,2.355v4.592h8.462l-0.47,9.883
			h-7.99V49H28.777L28.777,49z M20.584,46.864h6.059V25.344h8.088l0.267-5.613h-8.354v-6.727c0-2.222,0.512-4.49,4.308-4.49
			c1.524,0,2.974,0.006,3.907,0.014l0.129-5.199c-0.943-0.084-2.514-0.192-4.362-0.192c-7.401,0-10.04,4.603-10.04,8.909v7.686
			h-5.689v5.613h5.689V46.864L20.584,46.864L20.584,46.864z"/>
		</g>
		<g id="icon-twitter">
			<path d="M22.237,48.834c-4.654,0-9.268-1.289-13.336-3.727l-2.9-1.736l3.38,0.059c0.108,0.004,0.286,0.014,0.563,0.014
		c1.287,0,5.386-0.207,9.589-2.58c-3.16-0.939-5.771-3.381-6.847-6.578l-0.533-1.584l1.451,0.377
		c-2.324-1.787-3.846-4.532-4.013-7.592l-0.079-1.465l1.344,0.586c0.246,0.108,0.496,0.203,0.748,0.285
		c-1.91-2.672-3.064-6.804-0.654-11.191l0.662-1.209l0.845,1.091c4.042,5.226,10.037,8.413,16.573,8.851
		c-0.04-0.406-0.068-0.779-0.068-0.896c0-4.851,3.691-9.868,9.868-9.868c2.592,0,5.088,1.03,6.927,2.844
		c2.465-0.58,4.82-2.017,4.846-2.031l2.137-1.315l-0.809,2.375c-0.387,1.138-0.976,2.187-1.731,3.101
		c0.411-0.135,0.817-0.289,1.233-0.471l2.566-1.254l-1.079,2.314c-0.89,1.914-2.373,3.492-4.216,4.5
		c0.404,6.332-2.199,13.395-6.883,18.583c-3.477,3.852-9.668,8.455-19.42,8.518L22.237,48.834z M12.731,45.045
		c3.017,1.301,6.25,1.979,9.504,1.979h0.156c9.094-0.059,14.856-4.338,18.09-7.92c4.506-4.992,6.949-11.82,6.375-17.817
		l-0.062-0.637l0.579-0.271c0.917-0.427,1.738-1.021,2.43-1.744c-0.771,0.195-1.596,0.341-2.546,0.456l-0.694,0.084l-0.539-1.371
		l0.629-0.484c0.882-0.518,1.65-1.188,2.271-1.978c-0.981,0.418-2.144,0.828-3.303,1.044l-0.496,0.092l-0.339-0.373
		c-1.523-1.672-3.693-2.631-5.955-2.631c-5.044,0-8.061,4.098-8.061,8.059c0,0.24,0.121,1.33,0.162,1.611l0.411,1.166l-1.306-0.027
		c-7-0.151-13.512-3.219-18.083-8.469c-1.81,4.75,1.228,8.545,2.679,9.681l2.121,1.663l-2.693-0.047
		c-0.845-0.014-1.67-0.129-2.471-0.342c0.713,3.174,3.221,5.723,6.479,6.424l3.568,0.766l-3.512,0.99
		c-0.611,0.17-1.307,0.258-2.064,0.258c-0.354,0-0.693-0.02-1.006-0.049c1.412,2.488,4.043,4.158,6.952,4.301l2.543,0.125
		L22.5,41.092C18.985,43.68,15.339,44.676,12.731,45.045z"/>
		</g>

		<g id="icon-mail">
			<path d="M43.436,7.608H6.566C3.497,7.608,1,10.104,1,13.173v1.021v21.609v1.022c0,3.069,2.496,5.565,5.565,5.565h36.87
			c3.068,0,5.564-2.496,5.564-5.565v-1.022V14.192v-1.021C49,10.104,46.504,7.608,43.436,7.608z M43.436,9.464
			c0.256,0,0.504,0.025,0.746,0.076c0.076,0.016,0.146,0.048,0.225,0.068c0.158,0.043,0.32,0.082,0.471,0.146
			c0.082,0.034,0.152,0.085,0.232,0.125c0.133,0.069,0.271,0.133,0.396,0.216c0.072,0.051,0.137,0.113,0.203,0.17
			c0.119,0.092,0.24,0.178,0.348,0.284c0.061,0.062,0.107,0.136,0.166,0.2c0.098,0.113,0.201,0.223,0.287,0.348
			c0.051,0.074,0.086,0.16,0.131,0.237c0.074,0.129,0.154,0.254,0.213,0.392c0.037,0.088,0.057,0.186,0.088,0.277
			c0.047,0.139,0.098,0.271,0.129,0.417c0.021,0.103,0.021,0.213,0.035,0.319c0.018,0.139,0.041,0.273,0.041,0.417L29.553,23.912
			h-0.004l-4.55,2.782l-4.55-2.782h-0.001L2.857,13.155c0-0.137,0.025-0.266,0.039-0.397c0.015-0.112,0.015-0.229,0.037-0.339
			c0.025-0.129,0.074-0.248,0.114-0.37c0.035-0.106,0.06-0.221,0.103-0.323c0.049-0.117,0.119-0.221,0.178-0.33
			c0.056-0.099,0.1-0.205,0.164-0.299c0.07-0.103,0.156-0.19,0.236-0.285c0.072-0.088,0.137-0.183,0.217-0.264
			c0.087-0.086,0.188-0.154,0.283-0.232c0.09-0.071,0.17-0.154,0.267-0.219c0.103-0.07,0.217-0.119,0.328-0.178
			c0.1-0.055,0.196-0.118,0.302-0.164c0.137-0.059,0.285-0.093,0.43-0.134c0.09-0.024,0.174-0.063,0.266-0.082
			c0.24-0.052,0.49-0.076,0.746-0.076L43.436,9.464L43.436,9.464z M2.855,15.33L18.669,25L2.855,34.671V15.33z M6.564,40.537
			c-0.254,0-0.504-0.024-0.746-0.075c-0.112-0.023-0.217-0.066-0.326-0.102c-0.124-0.036-0.25-0.064-0.368-0.113
			c-0.142-0.061-0.269-0.143-0.401-0.217c-0.074-0.045-0.156-0.076-0.228-0.125c-0.128-0.086-0.24-0.19-0.356-0.293
			c-0.063-0.055-0.135-0.1-0.193-0.158c-0.104-0.104-0.19-0.225-0.282-0.342c-0.056-0.068-0.12-0.133-0.171-0.207
			c-0.075-0.108-0.131-0.233-0.193-0.352c-0.049-0.094-0.109-0.18-0.15-0.277c-0.047-0.109-0.071-0.229-0.107-0.346
			c-0.037-0.115-0.083-0.229-0.107-0.35c-0.022-0.109-0.023-0.229-0.037-0.342c-0.014-0.133-0.039-0.262-0.039-0.396l17.591-10.757
			l4.551,2.783l4.55-2.783l17.596,10.757c-0.002,0.137-0.025,0.264-0.041,0.396c-0.014,0.113-0.016,0.229-0.035,0.341
			c-0.025,0.121-0.072,0.233-0.109,0.349c-0.035,0.116-0.061,0.235-0.107,0.346c-0.041,0.099-0.102,0.186-0.15,0.278
			c-0.063,0.117-0.117,0.241-0.193,0.353c-0.051,0.074-0.115,0.137-0.17,0.207c-0.094,0.115-0.178,0.236-0.283,0.341
			c-0.061,0.059-0.131,0.104-0.193,0.159c-0.115,0.102-0.229,0.207-0.355,0.291c-0.07,0.05-0.152,0.082-0.229,0.125
			c-0.131,0.076-0.258,0.158-0.4,0.218c-0.115,0.049-0.244,0.077-0.365,0.114c-0.111,0.033-0.215,0.078-0.328,0.101
			c-0.242,0.05-0.49,0.075-0.746,0.075L6.564,40.537L6.564,40.537z M47.146,34.671L31.328,25l15.818-9.671V34.671z"/>
		</g>

		<g id="icon-pinterest">
			<path d="M15.199,49c-0.7,0-1.277-0.499-1.374-1.188l-0.018-0.113c-0.33-2.264-0.756-6.608,0.117-10.295l3.311-14.033
			c-0.271-0.676-0.787-2.234-0.787-4.27c0-4.414,2.689-7.871,6.125-7.871c2.751,0,4.599,2.011,4.599,5.002
			c0,1.695-0.646,3.787-1.328,6.002c-0.368,1.19-0.747,2.42-1.026,3.598c-0.229,0.967-0.043,1.891,0.521,2.604
			c0.603,0.76,1.56,1.193,2.627,1.193c4.104,0,7.32-5.701,7.32-12.98c0-5.59-3.806-9.063-9.931-9.063
			c-7.758,0-11.944,5.972-11.944,11.59c0,1.869,0.474,3.298,1.493,4.497c0.623,0.742,0.885,1.316,0.592,2.413
			c-0.071,0.269-0.189,0.735-0.301,1.183L14.956,28.2c-0.316,1.219-1.544,1.842-2.721,1.358c-3.789-1.543-6.049-5.673-6.049-11.041
			C6.187,9.908,13.626,1,26.076,1c11.104,0,17.737,8.212,17.737,16.152c0,11.076-6.424,19.117-15.272,19.117
			c-2.209,0-4.421-0.822-5.931-2.105c-0.479,1.891-1.156,4.553-1.361,5.302c-1.031,3.739-3.762,7.484-4.887,8.923
			C16.042,48.803,15.638,49,15.199,49z M22.574,13.316c-2.267,0-4.041,2.541-4.041,5.785c0,2.188,0.723,3.698,0.731,3.713
			l0.162,0.334l-0.083,0.367l-3.39,14.369c-0.502,2.122-0.598,4.898-0.281,7.939c1.232-1.734,2.863-4.352,3.569-6.912
			c0.315-1.148,1.833-7.166,1.848-7.229l0.667-2.642l1.268,2.411c0.705,1.341,2.961,2.729,5.521,2.729
			c7.765,0,13.188-7.004,13.188-17.033c0-6.914-5.855-14.067-15.654-14.067c-12.282,0-17.807,9.024-17.807,15.435
			c0,4.521,1.707,7.826,4.683,9.082l0.22-0.843c0.115-0.457,0.237-0.938,0.311-1.21c0.047-0.176,0.052-0.24,0.053-0.259
			c-0.008,0.014-0.042-0.058-0.223-0.272c-1.336-1.57-1.985-3.482-1.985-5.842c0-7.795,6.03-13.675,14.028-13.675
			c7.299,0,12.016,4.377,12.016,11.149c0,8.588-4.043,15.064-9.404,15.064c-1.711,0-3.264-0.723-4.263-1.984
			c-0.968-1.224-1.292-2.777-0.915-4.377c0.295-1.244,0.686-2.509,1.064-3.732c0.635-2.061,1.236-4.006,1.236-5.387
			C25.088,15.355,24.843,13.316,22.574,13.316z"/>
		</g>

		<g id="icon-google-plus">
			<path d="M47.718,20.573H44.47v-3.246c0-0.708-0.574-1.283-1.283-1.283s-1.283,0.575-1.283,1.283v3.246h-3.244
			c-0.709,0-1.283,0.574-1.283,1.283s0.574,1.283,1.283,1.283h3.244v3.246c0,0.709,0.574,1.284,1.283,1.284s1.283-0.575,1.283-1.284
			V23.14h3.248c0.708,0,1.281-0.574,1.281-1.283S48.427,20.573,47.718,20.573z"/>
			<path d="M33.677,20.573c-4.857,0.007-9.712,0.012-14.572-0.004c-0.002,0-0.004,0-0.008,0
			c-0.539,0-0.979,0.164-1.3,0.488c-0.485,0.486-0.481,1.105-0.479,1.34c0.012,1.27,0.009,2.539,0.008,3.813l-0.001,1.533
			c0,1.307,0.604,1.918,1.897,1.918l1.918,0.002c1.541,0,3.084,0.001,4.635-0.005c-0.016,0.026-0.028,0.059-0.043,0.087
			c-0.438,0.916-1.127,1.73-2.104,2.484c-1.229,0.742-2.461,1.17-3.766,1.305c-2.988,0.302-5.42-0.622-7.436-2.848
			c-0.683-0.754-1.236-1.713-1.712-2.906c-0.586-1.959-0.575-3.787,0.017-5.553c0.523-1.442,1.299-2.625,2.367-3.617
			c3.09-2.877,7.84-2.996,10.812-0.273c0.591,0.542,1.537,0.721,2.331-0.125l0.992-0.994c1.021-1.023,2.037-2.043,3.076-3.059
			c0.396-0.392,0.586-0.83,0.569-1.304c-0.026-0.709-0.524-1.129-0.679-1.259c-4.124-3.551-8.988-4.907-14.477-4.034
			c-3.796,0.606-7.118,2.381-9.872,5.271c-1.205,1.259-2.121,2.543-2.793,3.91c-0.167,0.318-0.371,0.716-0.421,0.821
			c-1.425,3.08-1.922,6.363-1.482,9.758c0.265,2.063,0.857,3.954,1.726,5.571c1.107,2.301,2.691,4.272,4.709,5.869
			c3.318,2.617,7.014,3.932,11.033,3.932c1.647,0,3.353-0.221,5.104-0.663c2.576-0.652,4.836-1.89,6.666-3.627
			c1.064-0.907,1.985-2.021,2.808-3.405c2.235-3.77,2.981-8,2.278-12.932C35.433,21.716,35.156,20.573,33.677,20.573z M30.894,33.63
			c-0.668,1.125-1.399,2.02-2.293,2.781c-1.543,1.466-3.404,2.482-5.531,3.021c-5.253,1.327-9.771,0.418-13.819-2.775
			c-1.695-1.338-3.024-2.994-3.98-4.98c-0.752-1.4-1.229-2.937-1.455-4.699C3.44,24.09,3.862,21.301,5.069,18.69
			c0.021-0.045,0.063-0.131,0.12-0.239c0.05-0.072,0.097-0.147,0.133-0.229c0.046-0.097,0.091-0.194,0.137-0.291
			c0.078-0.146,0.143-0.269,0.17-0.32c0.019-0.033,0.036-0.069,0.052-0.105c0.529-0.966,1.225-1.896,2.108-2.824
			c2.341-2.457,5.154-3.962,8.356-4.475c4.379-0.702,8.153,0.205,11.524,2.787c-0.78,0.773-1.56,1.552-2.334,2.331l-0.394,0.395
			c-4.004-2.988-9.82-2.654-13.669,0.93c-1.364,1.269-2.396,2.835-3.073,4.693c-0.774,2.309-0.791,4.733-0.015,7.312
			c0.633,1.612,1.349,2.829,2.255,3.831c2.596,2.867,5.871,4.113,9.699,3.716c1.707-0.177,3.371-0.757,4.946-1.72
			c0.04-0.023,0.077-0.051,0.113-0.078c1.352-1.03,2.315-2.176,2.95-3.499c0.281-0.587,0.465-1.169,0.629-1.716
			c0.07-0.234,0.283-0.943-0.197-1.584c-0.32-0.429-0.79-0.608-1.465-0.636c-1.992,0.017-3.984,0.015-5.975,0.015l-1.138-0.002
			v-0.767c0.002-0.983,0.004-1.966,0-2.961c4.297,0.011,8.599,0.007,12.925,0.002C33.353,27.213,32.687,30.612,30.894,33.63z"/>
		</g>
		<g id="icon-undo">
			<path d="M19.4,7.6h-7.8V2.8c0-0.4-0.2-0.8-0.6-1c-0.4-0.2-0.8-0.2-1.2,0.1l-9,6c-0.3,0.2-0.5,0.6-0.5,1
			s0.2,0.7,0.5,1l9,6c0.4,0.2,0.8,0.3,1.2,0.1c0.4-0.2,0.6-0.6,0.6-1V9.9h7.8c4.4,0,8,3.6,8,8s-3.6,8-8,8c-0.6,0-1.1,0.5-1.1,1.1
			s0.5,1.1,1.1,1.1c5.7,0,10.3-4.6,10.3-10.3S25.1,7.6,19.4,7.6z M9.3,12.6L3.5,8.8L9.3,5V12.6z"/>
		</g>
		<g id="icon-redo">
			<path d="M0.3,18c0,5.7,4.6,10.3,10.3,10.3c0.6,0,1.1-0.5,1.1-1.1S11.3,26,10.6,26c-4.4,0-8-3.6-8-8s3.6-8,8-8h7.8
			v4.8c0,0.4,0.2,0.8,0.6,1c0.4,0.2,0.8,0.2,1.2-0.1l9-6c0.3-0.2,0.5-0.6,0.5-1s-0.2-0.7-0.5-1l-9-6c-0.4-0.2-0.8-0.3-1.2-0.1
			c-0.4,0.2-0.6,0.6-0.6,1v4.8h-7.8C4.9,7.6,0.3,12.3,0.3,18z M20.7,5l5.7,3.8l-5.7,3.8V5z"/>
		</g>
		<g id="icon-zoom">
			<path d="M28.5,28.1L20,19.3c2.1-2,3.4-4.9,3.4-8c0-6.1-5-11.1-11.1-11.1S1.2,5.2,1.2,11.3c0,6.1,5,11.1,11.1,11.1
				c2.3,0,4.4-0.7,6.2-1.9l8.6,8.9c0.2,0.2,0.4,0.3,0.7,0.3c0.2,0,0.5-0.1,0.7-0.3C28.8,29.1,28.9,28.5,28.5,28.1z M3.2,11.3
				c0-5,4.1-9.1,9.1-9.1s9.1,4.1,9.1,9.1s-4.1,9.1-9.1,9.1C7.3,20.5,3.2,16.4,3.2,11.3z"/>
			<path d="M17.3,10.4h-4v-4c0-0.5-0.4-1-1-1s-1,0.4-1,1v4h-4c-0.5,0-1,0.4-1,1c0,0.5,0.4,1,1,1h4v4c0,0.5,0.4,1,1,1
				s1-0.4,1-1v-4h4c0.5,0,1-0.4,1-1C18.3,10.8,17.8,10.4,17.3,10.4z"/>
		</g>
		<g id="icon-fit-screen">
			<path d="M4.8,25.2c1.3,1.3,2.9,2.4,4.6,3.1c1.8,0.8,3.7,1.1,5.6,1.1c1.9,0,3.8-0.4,5.6-1.1
				c1.7-0.7,3.3-1.8,4.6-3.1c1.3-1.3,2.4-2.9,3.1-4.6c0.8-1.8,1.1-3.7,1.1-5.6c0-1.9-0.4-3.8-1.1-5.6c-0.7-1.7-1.8-3.3-3.1-4.6
				c-1.3-1.3-2.9-2.4-4.6-3.1C18.8,1,16.9,0.6,15,0.6c-1.9,0-3.8,0.4-5.6,1.1C7.7,2.4,6.1,3.5,4.8,4.8S2.4,7.7,1.7,9.4
				C1,11.2,0.6,13.1,0.6,15c0,1.9,0.4,3.8,1.1,5.6C2.4,22.3,3.5,23.9,4.8,25.2z M15,2.7c6.8,0,12.3,5.5,12.3,12.3
				c0,6.8-5.5,12.3-12.3,12.3S2.7,21.8,2.7,15C2.7,8.2,8.2,2.7,15,2.7z"/>
			<path d="M15,29.5c-2,0-3.8-0.4-5.6-1.1c-1.7-0.7-3.3-1.8-4.6-3.1c-1.3-1.3-2.4-2.9-3.1-4.6
				C0.9,18.8,0.5,17,0.5,15c0-2,0.4-3.8,1.1-5.6c0.7-1.7,1.8-3.3,3.1-4.6s2.9-2.4,4.6-3.1C11.2,0.9,13,0.5,15,0.5
				c2,0,3.8,0.4,5.6,1.1c1.7,0.7,3.3,1.8,4.6,3.1c1.3,1.3,2.4,2.9,3.1,4.6c0.8,1.8,1.1,3.7,1.1,5.6c0,2-0.4,3.8-1.1,5.6
				c-0.7,1.7-1.8,3.3-3.1,4.6c-1.3,1.3-2.9,2.4-4.6,3.1C18.8,29.1,17,29.5,15,29.5z M15,0.6c-1.9,0-3.8,0.4-5.6,1.1
				C7.7,2.5,6.1,3.5,4.8,4.8C3.5,6.1,2.5,7.7,1.7,9.4C1,11.2,0.6,13.1,0.6,15c0,1.9,0.4,3.8,1.1,5.6c0.7,1.7,1.8,3.3,3.1,4.6
				c1.3,1.3,2.9,2.4,4.6,3.1c1.8,0.8,3.7,1.1,5.6,1.1s3.8-0.4,5.6-1.1c1.7-0.7,3.3-1.8,4.6-3.1c1.3-1.3,2.4-2.9,3.1-4.6
				c0.8-1.8,1.1-3.7,1.1-5.6c0-1.9-0.4-3.8-1.1-5.6c-0.7-1.7-1.8-3.3-3.1-4.6c-1.3-1.3-2.9-2.4-4.6-3.1C18.8,1,16.9,0.6,15,0.6z
				 M15,27.3c-3.3,0-6.4-1.3-8.7-3.6c-2.3-2.3-3.6-5.4-3.6-8.7s1.3-6.4,3.6-8.7c2.3-2.3,5.4-3.6,8.7-3.6s6.4,1.3,8.7,3.6
				c2.3,2.3,3.6,5.4,3.6,8.7s-1.3,6.4-3.6,8.7C21.4,26.1,18.3,27.3,15,27.3z M15,2.7c-3.3,0-6.4,1.3-8.7,3.6C4,8.6,2.7,11.7,2.7,15
				s1.3,6.4,3.6,8.7c2.3,2.3,5.4,3.6,8.7,3.6s6.4-1.3,8.7-3.6c2.3-2.3,3.6-5.4,3.6-8.7c0-3.3-1.3-6.4-3.6-8.7
				C21.4,4,18.3,2.7,15,2.7z"/>
			<path d="M9.6,20.4c0.2,0.2,0.5,0.3,0.7,0.3c0.3,0,0.5-0.1,0.7-0.3l3.9-3.9l3.9,3.9c0.2,0.2,0.5,0.3,0.7,0.3
				s0.5-0.1,0.7-0.3c0.4-0.4,0.4-1.1,0-1.5L16.5,15l3.9-3.9c0.4-0.4,0.4-1.1,0-1.5c-0.4-0.4-1.1-0.4-1.5,0L15,13.5l-3.9-3.9
				c-0.4-0.4-1.1-0.4-1.5,0c-0.4,0.4-0.4,1.1,0,1.5l3.9,3.9l-3.9,3.9C9.2,19.3,9.2,20,9.6,20.4z"/>
			<path d="M19.6,20.7c-0.3,0-0.6-0.1-0.8-0.3L15,16.5l-3.9,3.9c-0.2,0.2-0.5,0.3-0.8,0.3s-0.6-0.1-0.8-0.3
				c-0.2-0.2-0.3-0.5-0.3-0.8c0-0.3,0.1-0.6,0.3-0.8l3.9-3.9l-3.9-3.9c-0.4-0.4-0.4-1.1,0-1.5c0.2-0.2,0.5-0.3,0.8-0.3
				c0.3,0,0.6,0.1,0.8,0.3l3.9,3.9l3.9-3.9c0.2-0.2,0.5-0.3,0.8-0.3c0.3,0,0.6,0.1,0.8,0.3c0.2,0.2,0.3,0.5,0.3,0.8
				s-0.1,0.6-0.3,0.8L16.5,15l3.9,3.9c0.2,0.2,0.3,0.5,0.3,0.8c0,0.3-0.1,0.6-0.3,0.8C20.2,20.6,19.9,20.7,19.6,20.7z M15,16.5
				l3.9,3.9c0.2,0.2,0.5,0.3,0.7,0.3c0.3,0,0.5-0.1,0.7-0.3c0.2-0.2,0.3-0.5,0.3-0.7s-0.1-0.5-0.3-0.7L16.5,15l3.9-3.9
				c0.2-0.2,0.3-0.5,0.3-0.7c0-0.3-0.1-0.5-0.3-0.7c-0.2-0.2-0.5-0.3-0.7-0.3c-0.3,0-0.5,0.1-0.7,0.3L15,13.5l-3.9-3.9
				c-0.2-0.2-0.5-0.3-0.7-0.3S9.8,9.5,9.7,9.7c-0.4,0.4-0.4,1.1,0,1.5l3.9,3.9l-3.9,3.9c-0.2,0.2-0.3,0.5-0.3,0.7s0.1,0.5,0.3,0.7
				c0.2,0.2,0.5,0.3,0.7,0.3s0.5-0.1,0.7-0.3L15,16.5z"/>
		</g>
		<g id="icon-reset">
			<path d="M29,13.3c-0.1-0.6-0.7-1-1.3-0.9c-0.6,0.1-1,0.7-0.9,1.3c0,0,0,0,0,0c1.1,6.6-3.3,12.8-9.9,14
			c-6.6,1.1-12.8-3.3-14-9.9s3.3-12.8,9.9-14c4.1-0.7,8.2,0.7,11,3.8l-4.9,1.6c-0.6,0.2-0.9,0.8-0.7,1.4c0,0,0,0,0,0
			c0.2,0.6,0.8,0.9,1.4,0.7c0,0,0,0,0,0L26.2,9c0.4-0.1,0.8-0.6,0.8-1V1.3c0-0.6-0.5-1.1-1.1-1.1c-0.6,0-1.1,0.5-1.1,1.1v4
			C19.1,0,10.1,0.2,4.7,5.9s-5.2,14.6,0.5,20s14.6,5.2,20-0.5C28.3,22.1,29.7,17.6,29,13.3z"/>
		</g>
		<g id="icon-info">
			<path d="M10,0.5c-5.2,0-9.5,4.3-9.5,9.5s4.3,9.5,9.5,9.5s9.5-4.3,9.5-9.5S15.2,0.5,10,0.5z M10,17.8c-4.3,0-7.8-3.5-7.8-7.8
				S5.7,2.2,10,2.2s7.8,3.5,7.8,7.8S14.3,17.8,10,17.8z"/>
			<path d="M10,4.5C9.4,4.5,8.8,5,8.8,5.7c0,0.6,0.5,1.2,1.2,1.2s1.2-0.5,1.2-1.2C11.2,5,10.6,4.5,10,4.5z"/>
			<path d="M10,8.6c-0.5,0-0.9,0.4-0.9,0.9v5.2c0,0.5,0.4,0.9,0.9,0.9s0.9-0.4,0.9-0.9V9.4C10.9,8.9,10.5,8.6,10,8.6z"/>
		</g>
		<g id="icon-upfacebook">
			<path d="M4.7,29.5h9.5V19.2h-3.4v-3.4h3.4v-4.2c0-2.3,1.9-4.2,4.2-4.2h4.2v3.4h-3.4c-0.9,0-1.7,0.8-1.7,1.7v3.4h4.9L22,19.2h-4.4
				v10.3h7.6c2.3,0,4.2-1.9,4.2-4.2V4.7c0-2.3-1.9-4.2-4.2-4.2H4.7c-2.3,0-4.2,1.9-4.2,4.2v20.5C0.5,27.6,2.4,29.5,4.7,29.5z M2.2,4.7
				c0-1.4,1.1-2.5,2.5-2.5h20.5c1.4,0,2.5,1.1,2.5,2.5v20.5c0,1.4-1.1,2.5-2.5,2.5h-5.9v-6.9h4.1l1.1-6.8h-5.3v-1.7h5.1V5.6h-5.9
				c-3.3,0-5.9,2.7-5.9,5.9v2.5H9.1v6.8h3.4v6.9H4.7c-1.4,0-2.5-1.1-2.5-2.5V4.7z"/>
		</g>
		<g id="icon-upinsta">
			<path d="M4.7,29.5h20.5c2.3,0,4.2-1.9,4.2-4.2V4.7c0-2.3-1.9-4.2-4.2-4.2H4.7c-2.3,0-4.2,1.9-4.2,4.2v20.5
				C0.5,27.6,2.4,29.5,4.7,29.5z M2.2,4.7c0-1.4,1.1-2.5,2.5-2.5h20.5c1.4,0,2.5,1.1,2.5,2.5v20.5c0,1.4-1.1,2.5-2.5,2.5H4.7
				c-1.4,0-2.5-1.1-2.5-2.5V4.7z"/>
			<path d="M15,22.6c4.2,0,7.6-3.4,7.6-7.6S19.2,7.4,15,7.4S7.4,10.8,7.4,15S10.8,22.6,15,22.6z M15,9.1c3.3,0,5.9,2.7,5.9,5.9
				s-2.7,5.9-5.9,5.9S9.1,18.3,9.1,15S11.7,9.1,15,9.1z"/>
			<path d="M23.5,9.1c1.4,0,2.5-1.1,2.5-2.5S24.9,4,23.5,4s-2.5,1.1-2.5,2.5S22.1,9.1,23.5,9.1z M23.5,5.7c0.5,0,0.8,0.4,0.8,0.8
				S24,7.4,23.5,7.4S22.6,7,22.6,6.5S23,5.7,23.5,5.7z"/>
		</g>
		<g id="icon-uptwitter">
			<path d="M29.5,6.3c-1.8,0.1-1.8,0.1-2,0.1l1.1-3.1c0,0-3.4,1.2-4.2,1.5c-2.2-2-5.6-2.1-8-0.6c-2,1.2-3,3.3-2.7,5.7
			c-3.8-0.5-7-2.3-9.5-5.4l-0.8-1L2.8,4.6C2.1,6,1.8,7.5,2.1,9c0.1,0.6,0.3,1.2,0.6,1.7L2,10.5L2,11.7c-0.1,1.2,0.3,2.5,1,3.6
			c0.2,0.3,0.5,0.7,0.8,1l-0.4-0.1l0.4,1.3c0.6,1.7,1.8,3.1,3.3,3.8c-1.5,0.6-2.8,1.1-4.8,1.7l-1.9,0.6l1.7,0.9c0.7,0.4,3,1.6,5.3,1.9
			c5.1,0.8,10.8,0.1,14.7-3.3c3.2-2.9,4.3-7.1,4.1-11.4c0-0.7,0.1-1.3,0.5-1.8C27.5,9.1,29.5,6.3,29.5,6.3z M25.4,9.1
			c-0.6,0.8-0.9,1.8-0.8,2.9c0.2,4.4-1,7.8-3.5,10.1c-3,2.7-7.8,3.8-13.3,2.9c-1-0.2-2-0.5-2.8-0.8c1.7-0.6,3-1.1,5.1-2.1l3-1.4
			l-3.3-0.2c-1.6-0.1-2.9-0.9-3.7-2.1c0.4,0,0.8-0.1,1.2-0.2l3.1-0.9l-3.2-0.8c-1.5-0.4-2.4-1.3-2.9-2c-0.3-0.5-0.5-0.9-0.6-1.4
			c0.3,0.1,0.7,0.1,1.3,0.2L8,13.5l-2.3-1.8C4,10.4,3.3,8.4,3.8,6.6c5.2,5.4,11.3,5,11.9,5.1c-0.1-1.3-0.1-1.3-0.2-1.4
			c-0.8-2.8,0.9-4.2,1.7-4.7c1.6-1,4.2-1.1,6,0.5c0.4,0.4,0.9,0.5,1.4,0.4c0.4-0.1,0.8-0.2,1.1-0.3l-0.7,2.1l0.9,0
			C25.8,8.4,25.6,8.7,25.4,9.1z"/>
		</g>
		<g id="icon-uplink">
			<path d="M27.5,2.5c-2.7-2.7-7-2.7-9.7,0l-4.8,4.8c-0.4,0.4-0.4,1.1,0,1.5c0.4,0.4,1.1,0.4,1.5,0L19.3,4c0.9-0.9,2.1-1.4,3.4-1.4
				c1.3,0,2.5,0.5,3.4,1.4s1.4,2.1,1.4,3.4c0,1.3-0.5,2.5-1.4,3.4l-6.3,6.3c-1.9,1.9-4.9,1.9-6.7,0c-0.4-0.4-1.1-0.4-1.5,0
				c-0.4,0.4-0.4,1.1,0,1.5c1.3,1.3,3.1,2,4.8,2s3.5-0.7,4.8-2l6.3-6.3c1.3-1.3,2-3,2-4.8C29.5,5.5,28.8,3.8,27.5,2.5z"/>
			<path d="M14.8,21.9L10.7,26c-0.9,0.9-2.1,1.4-3.4,1.4c-1.3,0-2.5-0.5-3.4-1.4c-1.9-1.9-1.9-4.9,0-6.7l6-6c0.9-0.9,2.1-1.4,3.4-1.4
				c1.3,0,2.5,0.5,3.4,1.4c0.4,0.4,1.1,0.4,1.5,0c0.4-0.4,0.4-1.1,0-1.5c-2.7-2.7-7-2.7-9.7,0l-6,6c-1.3,1.3-2,3-2,4.8
				c0,1.8,0.7,3.6,2,4.8c1.3,1.3,3,2,4.8,2c1.8,0,3.6-0.7,4.8-2l4.1-4.1c0.4-0.4,0.4-1.1,0-1.5C15.9,21.5,15.2,21.5,14.8,21.9z"/>
		</g>
		<g id="icon-upgoogle">
			<path d="M19.2,12.5H9.5V17h4.9c-0.7,1.8-2.3,3-4.3,3C7.4,20,5,17.6,5,15s2.4-5,5.1-5c1.3,0,2.4,0.4,3.2,1.2l0.3,0.3L17,8.2
				l-0.4-0.3c-1.5-1.6-3.8-2.4-6.5-2.4c-5.4,0-9.6,4.1-9.6,9.5s4.2,9.5,9.6,9.5c5,0,8.5-2.9,9.2-7.6c0.1-0.6,0.2-1.2,0.2-1.9
				c0-0.8,0-1.5-0.2-2.1L19.2,12.5z M18.3,16.8c-0.6,4.2-3.7,6.8-8.2,6.8c-4.8,0-8.6-3.8-8.6-8.5s3.8-8.5,8.6-8.5
				c2.3,0,4.1,0.6,5.4,1.7l-2,2C12.7,9.4,11.5,9,10.1,9C6.8,9,4,11.7,4,15s2.8,6,6,6c2.7,0,4.8-1.8,5.4-4.4l0.2-0.6h-5.1v-2.5h7.9
				c0,0.5,0.1,1,0.1,1.5C18.5,15.6,18.4,16.2,18.3,16.8z"/>
			<path d="M26.5,12.5v-3H23v3h-3V16h3v3h3.5v-3h3v-3.5L26.5,12.5L26.5,12.5z M28.5,15h-3v3H24v-3h-3v-1.5h3v-3h1.5v3h3V15z"/>
		</g>
		<g id="icon-upmore">
			<path d="M25.9,3.3c1.5,0,2.7,1.1,2.7,2.3v18.8c0,1.3-1.2,2.3-2.7,2.3H4.1c-1.5,0-2.7-1.1-2.7-2.3V5.6c0-1.3,1.2-2.3,2.7-2.3H25.9
				M25.9,2.5H4.1c-2,0-3.6,1.4-3.6,3.1v18.8c0,1.7,1.6,3.1,3.6,3.1h21.8c2,0,3.6-1.4,3.6-3.1V5.6C29.5,3.9,27.9,2.5,25.9,2.5
				L25.9,2.5z"/>
			<circle cx="8.9" cy="15" r="4"/>
			<circle cx="21.1" cy="15" r="4"/>
		</g>
		<g id="icon-upload">
			<path d="M28.6,14.7c-0.5,0-0.8,0.4-0.8,0.8V23c0,2-1.7,3.7-3.7,3.7H5.9c-2,0-3.7-1.7-3.7-3.7v-7.6c0-0.5-0.4-0.8-0.8-0.8
				s-0.8,0.4-0.8,0.8V23c0,3,2.4,5.3,5.3,5.3h18.1c3,0,5.3-2.4,5.3-5.3v-7.5C29.4,15,29,14.7,28.6,14.7z"/>
			<path d="M10.3,8.3l3.8-3.8v16.7c0,0.5,0.4,0.8,0.8,0.8s0.8-0.4,0.8-0.8V4.5l3.8,3.8c0.2,0.2,0.4,0.2,0.6,0.2
				c0.2,0,0.4-0.1,0.6-0.2c0.3-0.3,0.3-0.8,0-1.2l-5.2-5.2c-0.2-0.2-0.4-0.2-0.6-0.2c-0.2,0-0.4,0.1-0.6,0.2L9.2,7.1
				C8.9,7.5,8.9,8,9.2,8.3C9.5,8.6,10,8.6,10.3,8.3z"/>
		</g>
		<g id="icon-best-fit">
			<path d="M26.5,0.4C26.4,0.4,26.4,0.4,26.5,0.4l-22.8,0c-2.4,0-3.2,1.9-3.2,3.2v7.3v14.7c-0.4,3.8,2,4,3.8,4h15.5H27
			c1.3,0,3-0.8,2.6-3.2c0,0,0,0,0,0V3.6c0,0,0,0,0,0C29.6,1.9,28.5,0.7,26.5,0.4z M3.6,27C3.3,27,3,26.7,3,26.4V12.8
			c0,0,0-0.1,0.1-0.1h14.1c0,0,0.1,0,0.1,0.1v14.1c0,0,0,0.1-0.1,0.1H3.6z M27,26.4c0,0.3-0.3,0.6-0.6,0.6h-7.3c0,0-0.1,0.3,0.5,0.3
			v-15c-0.6,0-0.6-0.1-0.2,0.2l3-3c-0.4-0.3-0.3-0.3-0.3-0.2l1.9,1.9c0.1,0.1,0.3,0.1,0.4,0.1c0.1-0.1,0.2-0.2,0.2-0.4l0-5.2
			c0-0.2-0.2-0.4-0.4-0.4l-5.2,0c-0.2,0-0.3,0.1-0.4,0.2c-0.1,0.1,0,0.3,0.1,0.4l1.9,1.9c0,0-0.2-0.4-0.2-0.4l-3,3
			c0,0,0.2-0.1,0.2-0.1H3c0,0,0,0.6,0,0.6V3.6C3,3.3,3.3,3,3.6,3h22.7C26.7,3,27,3.3,27,3.6L27,26.4L27,26.4z"/>
		</g>
		<g id="icon-crop">
			<path d="M6.2,0.2h2.9v20.8h20.4v3h-5.8v5.9h-2.9v-5.9H6.2V9.1H0.4v-3h5.8C6.2,6.1,6.2,0.2,6.2,0.2z M12.1,6.1h11.7
			V18h-2.9V9.1h-8.8V6.1z"/>
		</g>
		<g id="icon-layer">
			<path d="M49.4,14.4c0-0.4-0.2-0.7-0.6-0.9L25.5,0.8c-0.3-0.2-0.7-0.2-1,0L1.2,13.5c-0.3,0.2-0.6,0.5-0.6,0.9
			c0,0.4,0.2,0.7,0.6,0.9l8,4.4l-8,4.4c-0.3,0.2-0.6,0.5-0.6,0.9c0,0.4,0.2,0.7,0.6,0.9l8,4.4l-8,4.4c-0.3,0.2-0.6,0.5-0.6,0.9
			s0.2,0.7,0.6,0.9l23.3,12.7c0.2,0.1,0.3,0.1,0.5,0.1s0.3,0,0.5-0.1l23.3-12.7c0.3-0.2,0.6-0.5,0.6-0.9s-0.2-0.7-0.6-0.9l-8-4.4
			l8-4.4c0.3-0.2,0.6-0.5,0.6-0.9c0-0.4-0.2-0.7-0.6-0.9l-8-4.4l8-4.4C49.1,15.2,49.4,14.8,49.4,14.4z M25,47.1L3.9,35.6l7.5-4.1
			l13.1,7.1c0.3,0.2,0.7,0.2,1,0l13.1-7.1l7.5,4.1L25,47.1z M46.1,25l-8,4.4L25,36.5l-13.1-7.1c0,0,0,0,0,0l-8-4.4l7.5-4.1L24.5,28
			c0.2,0.1,0.3,0.1,0.5,0.1s0.3,0,0.5-0.1l13.1-7.1L46.1,25z M25,25.9L3.9,14.4L25,2.9l21.1,11.5L25,25.9z"/>
		</g>
		<g id="icon-view-alt">
			<path d="M29.5,14.4C29.3,14.1,23,5.6,15,5.6S0.7,14.1,0.5,14.4c-0.2,0.3-0.2,0.8,0,1.1C0.7,15.9,7,24.4,15,24.4
				s14.3-8.5,14.5-8.8C29.8,15.2,29.8,14.8,29.5,14.4z M15,22.4c-5.9,0-11-5.6-12.5-7.4C4,13.2,9.1,7.6,15,7.6
				c5.9,0,11,5.6,12.5,7.4C26,16.8,20.9,22.4,15,22.4z"/>
			<path d="M15,9.2c-3.2,0-5.8,2.6-5.8,5.8s2.6,5.8,5.8,5.8s5.8-2.6,5.8-5.8S18.2,9.2,15,9.2z M15,18.9
				c-2.1,0-3.9-1.7-3.9-3.9s1.7-3.9,3.9-3.9s3.9,1.7,3.9,3.9S17.1,18.9,15,18.9z"/>
		</g>
		<g id="icon-user">
			<path d="M14.9,16.1C14.9,16.1,15,16.1,14.9,16.1c0.1,0,0.1,0,0.1,0c0,0,0,0,0.1,0c1.8,0,3.2-0.7,4.3-1.9
				c2.3-2.6,1.9-7.2,1.9-7.6c-0.2-3.2-1.7-4.8-2.9-5.5c-0.9-0.5-2-0.8-3.3-0.9h0c0,0,0,0,0,0h0c-0.7,0-2,0.1-3.3,0.8
				c-1.3,0.7-2.8,2.3-3,5.5c0,0.4-0.4,4.9,1.9,7.6C11.7,15.5,13.1,16.1,14.9,16.1z M10.3,6.9C10.3,6.8,10.3,6.8,10.3,6.9
				C10.5,2.5,13.6,2,15,2h0c0,0,0,0,0,0c1.6,0,4.4,0.7,4.6,4.8c0,0,0,0,0,0c0,0,0.4,4.2-1.5,6.3c-0.8,0.9-1.8,1.3-3.1,1.3
				c0,0,0,0,0,0l0,0c0,0,0,0,0,0c-1.3,0-2.4-0.4-3.1-1.3C9.9,11,10.3,6.9,10.3,6.9z"/>
			<path d="M27.5,23.6C27.5,23.6,27.5,23.6,27.5,23.6c0-0.1,0-0.1,0-0.2c0-1.2-0.1-4-2.8-4.9c0,0,0,0-0.1,0
				c-2.7-0.7-5-2.3-5-2.3c-0.4-0.3-0.9-0.2-1.1,0.2s-0.2,0.9,0.2,1.1c0.1,0.1,2.5,1.8,5.5,2.5c1.4,0.5,1.6,2,1.6,3.4
				c0,0.1,0,0.1,0,0.2c0,0.5,0,1.4-0.1,1.9c-1,0.6-4.8,2.5-10.7,2.5c-5.8,0-9.7-1.9-10.7-2.5c-0.1-0.5-0.1-1.3-0.1-1.9
				c0,0,0-0.1,0-0.2c0-1.4,0.2-2.9,1.6-3.4c3-0.8,5.4-2.5,5.5-2.5c0.4-0.3,0.5-0.8,0.2-1.1c-0.3-0.4-0.8-0.5-1.1-0.2
				c0,0-2.3,1.6-5,2.3c0,0,0,0-0.1,0c-2.6,0.9-2.7,3.7-2.8,4.9c0,0.1,0,0.1,0,0.2c0,0,0,0,0,0c0,0.3,0,1.9,0.3,2.8
				c0.1,0.2,0.2,0.3,0.3,0.4c0.2,0.1,4.5,2.9,11.9,2.9s11.7-2.8,11.9-2.9c0.1-0.1,0.3-0.2,0.3-0.4C27.5,25.6,27.5,23.9,27.5,23.6z"/>
		</g>
		<g id="icon-question">
			<path d="M15,0.4C7,0.4,0.4,7,0.4,15C0.4,23,7,29.6,15,29.6c8,0,14.6-6.5,14.6-14.6C29.6,7,23,0.4,15,0.4z M15,27.7
				C8,27.7,2.3,22,2.3,15C2.3,8,8,2.3,15,2.3C22,2.3,27.7,8,27.7,15C27.7,22,22,27.7,15,27.7z"/>
			<path d="M15,7.1c-2.6,0-4.7,2.1-4.7,4.7c0,0.5,0.4,1,1,1c0.5,0,1-0.4,1-1c0-1.5,1.2-2.7,2.7-2.7
				c1.5,0,2.7,1.2,2.7,2.7c0,1.5-1.2,2.7-2.7,2.7c-0.5,0-1,0.4-1,1v3.3c0,0.5,0.4,1,1,1s1-0.4,1-1v-2.5c2.1-0.4,3.7-2.3,3.7-4.6
				C19.7,9.2,17.6,7.1,15,7.1z"/>
			<path d="M15,21.4c-0.7,0-1.2,0.5-1.2,1.2s0.5,1.2,1.2,1.2c0.7,0,1.2-0.5,1.2-1.2S15.7,21.4,15,21.4z"/>
		</g>
		<g id="icon-more-btn">
			<circle cx="15" cy="26.4" r="3.3"/>
			<circle cx="15" cy="15" r="3.3"/>
			<circle cx="15" cy="3.6" r="3.3"/>
		</g>
		<g id="icon-cart">
			<path d="M24.5,29.2H5.5c-0.6,0-1.2-0.3-1.6-0.9
			c-0.4-0.6-0.6-1.3-0.6-2.1L4.2,9.9c0.1-1.4,1.1-2.6,2.2-2.6h17.2c1.2,0,2.1,1.1,2.2,2.6l0.9,16.4c0,0.8-0.2,1.5-0.6,2.1
			C25.7,28.9,25.1,29.2,24.5,29.2z M6.4,8.4c-0.7,0-1.3,0.7-1.3,1.5L4.2,26.4c0,0.5,0.1,0.9,0.4,1.2c0.3,0.3,0.6,0.5,1,0.5h18.9
			c0.4,0,0.7-0.2,1-0.5c0.3-0.3,0.4-0.8,0.4-1.2L24.9,9.9c0-0.9-0.6-1.5-1.3-1.5C23.6,8.4,6.4,8.4,6.4,8.4z M21.2,11.3
			c-0.2,0-0.4-0.2-0.4-0.4v-1c0-4.5-2.6-8.2-5.8-8.2S9.2,5.3,9.2,9.9v1c0,0.2-0.2,0.4-0.4,0.4c-0.2,0-0.4-0.2-0.4-0.4v-1
			c0-5,3-9.1,6.6-9.1s6.6,4.1,6.6,9.1v1C21.6,11.1,21.4,11.3,21.2,11.3z"/>
		</g>
		<g id="icon-upload-mob">
			<path d="M29,2.9H1.3c-0.4,0-0.8,0.4-0.8,0.8v24.4c0,0.4,0.4,0.8,0.8,0.8H29c0.4,0,0.8-0.4,0.8-0.8V3.7
				C29.8,3.3,29.4,2.9,29,2.9z M28.1,27.3H2.1V4.5h26.1V27.3z"/>
			<path d="M29.7,27.8l-9-17.9c-0.1-0.3-0.4-0.4-0.7-0.4c-0.3,0-0.6,0.1-0.7,0.4l-6,10.5l-4.1-4.1
				C9,16,8.7,15.9,8.5,15.9c-0.2,0-0.5,0.2-0.6,0.4L0.6,27.7c-0.2,0.4-0.1,0.9,0.2,1.1c0.4,0.2,0.9,0.1,1.1-0.2L8.7,18l4.2,4.2
				c0.2,0.2,0.4,0.3,0.7,0.2c0.3,0,0.5-0.2,0.6-0.4L20,11.9l8.3,16.6c0.1,0.3,0.4,0.4,0.7,0.4c0.1,0,0.2,0,0.4-0.1
				C29.7,28.7,29.9,28.2,29.7,27.8z"/>
			<path d="M9.4,6.1c-2.2,0-4.1,1.8-4.1,4.1s1.8,4.1,4.1,4.1s4.1-1.8,4.1-4.1S11.7,6.1,9.4,6.1z M9.4,12.7
				c-1.3,0-2.4-1.1-2.4-2.4s1.1-2.4,2.4-2.4s2.4,1.1,2.4,2.4S10.8,12.7,9.4,12.7z"/>
			<path d="M39.2,16.1l-9.8-6.5c-0.4-0.2-0.9-0.1-1.1,0.2c-0.2,0.4-0.1,0.9,0.2,1.1l9.1,6.1L27,35.2l-14-7.8
				c-0.4-0.2-0.9-0.1-1.1,0.3c-0.2,0.4-0.1,0.9,0.3,1.1L26.9,37c0.1,0.1,0.3,0.1,0.4,0.1c0.3,0,0.6-0.1,0.7-0.4l11.4-19.6
				C39.7,16.8,39.6,16.3,39.2,16.1z"/>
		</g>
		<g id="icon-more-btn-v">
			<circle cx="3.5" cy="15" r="3.3"/>
			<circle cx="15" cy="15" r="3.3"/>
			<circle cx="26.5" cy="15" r="3.3"/>
		</g>
		<g id="icon-logout">
			<path d="M26.1,2.1H15.9c-1.7,0-3.1,1.4-3.1,3.1v2.7c0,0.4,0.3,0.8,0.8,0.8s0.8-0.3,0.8-0.8V5.1
			c0-0.8,0.7-1.5,1.5-1.6h10.2c0.8,0,1.5,0.7,1.5,1.6v19.7c0,0.8-0.7,1.5-1.5,1.5H15.9c-0.8,0-1.5-0.7-1.5-1.5v-2.7
			c0-0.4-0.3-0.8-0.8-0.8s-0.8,0.3-0.8,0.8v2.7c0,1.7,1.4,3.1,3.1,3.1h10.2c1.7,0,3-1.4,3-3.1V5.1C29.1,3.5,27.8,2.1,26.1,2.1z"/>
			<path d="M3.5,15.8h18.1c0.4,0,0.8-0.3,0.8-0.8c0-0.4-0.3-0.8-0.8-0.8H3.3l3.9-4.5c0.3-0.3,0.2-0.8-0.1-1.1
			C6.8,8.4,6.4,8.4,6.1,8.7v0l-4.9,5.7C1,14.6,0.9,14.8,0.9,15c0,0.2,0.1,0.5,0.3,0.6l4.9,4.9c0.3,0.3,0.8,0.3,1.1,0
			c0.3-0.3,0.3-0.8,0-1.1c0,0,0,0,0,0L3.5,15.8z"/>
		</g>
		<g id="icon-productComponent">
			<path d="M35,5h-5c0,2.8-2.2,5-5,5s-5-2.2-5-5h-5L1,13l4,11l6-2v23h28V22l6,2l4-11L35,5z M43.8,21.5l-4.2-1.4L37,19.2V22v21H13V22
			v-2.8l-2.6,0.9l-4.2,1.4l-2.8-7.6L15.5,7h2.8c0.9,2.9,3.5,5,6.7,5c3.2,0,5.8-2.1,6.7-5h2.8l12.1,6.9L43.8,21.5z"/>
		</g>
		<g id="icon-3d">
			<polygon fill="#F0C650" points="26.6,8.1 15,1.4 3.4,8.1 15,14.8 	"/>
			<polygon fill="#4070C9" points="15,28.6 3.4,21.9 3.4,8.1 15,14.8 	"/>
			<polygon fill="#62AC4B" points="15,28.6 26.6,21.9 26.6,8.1 15,14.8 	"/>
			<path d="M8.9,21.7c1.5,0.8,2.4,0.5,2.4-0.8v0c0-1.2-0.9-2.2-1.8-2.9l1.3-0.5c0.3-0.1,0.4-0.2,0.4-0.6c0-0.4-0.3-0.8-0.7-1.1
				l-3.2-1.8c-0.3-0.2-0.6-0.1-0.6,0.3c0,0.3,0.3,0.8,0.6,1l2,1.2L8,17.1c-0.2,0.1-0.3,0.2-0.3,0.4c0,0.3,0.3,0.8,0.6,1l0.2,0.1
				c0.8,0.5,1.3,1,1.3,1.6v0c0,0.5-0.4,0.6-0.9,0.3c-0.5-0.3-0.9-0.7-1.3-1.2c-0.1-0.2-0.3-0.3-0.5-0.4c-0.4-0.2-0.7-0.1-0.7,0.3
				c0,0.2,0.1,0.5,0.2,0.7C7.2,20.5,7.9,21.2,8.9,21.7z M18.9,22.8l1.8-1.1c2.1-1.2,3.5-3.4,3.5-5.3v0c0-1.8-1.4-2.4-3.5-1.2l-1.8,1.1
				c-0.4,0.2-0.7,0.7-0.7,1.1v5.1C18.2,22.9,18.5,23,18.9,22.8z M19.6,17.1l1.1-0.6c1.2-0.7,2-0.3,2,0.8v0c0,1.2-0.8,2.4-2,3.1
				l-1.1,0.6V17.1z M26.8,7.7L15.2,1.1c-0.1-0.1-0.3-0.1-0.4,0L3.2,7.7C3.1,7.8,3,8,3,8.1v13.8c0,0.2,0.1,0.3,0.2,0.4l11.6,6.7
				c0.1,0,0.1,0.1,0.2,0.1c0.1,0,0.1,0,0.2-0.1l11.6-6.7c0.1-0.1,0.2-0.2,0.2-0.4V8.1C27,8,26.9,7.8,26.8,7.7z M14.6,27.8L3.8,21.6
				V8.9l10.7,6.2L14.6,27.8L14.6,27.8z M15,14.3L4.3,8.1L15,1.9l10.7,6.2L15,14.3z M26.2,21.6l-10.7,6.2V15.1l10.7-6.2L26.2,21.6
				L26.2,21.6z"/>
		</g>
		<g id="icon-desktop">
			<path d="M43.8,1.6H6.2c-2.7,0-5,2.4-5,5.3v27.7c0,2.9,2.2,5.3,5,5.3h13.7l-2.8,5.3c-0.3,0.7-0.3,1.5,0,2.1c0.3,0.6,1,1.1,1.7,1.1
				h12.5c0.7,0,1.3-0.4,1.7-1.1c0.3-0.6,0.3-1.4,0-2.1l-2.8-5.3h13.7c2.7,0,5-2.4,5-5.3V6.9C48.8,4,46.6,1.6,43.8,1.6z M31.2,46.3
				H18.8l3.3-6.4h5.8L31.2,46.3z M46.8,34.6c0,1.8-1.3,3.2-3,3.2H28.5h-6.9H6.2c-1.6,0-3-1.4-3-3.2v-3.2h43.6V34.6z M46.8,29.3H3.2
				V6.9c0-1.8,1.3-3.2,3-3.2h37.7c1.6,0,3,1.4,3,3.2V29.3z"/>
		</g>
		<g id="icon-tablet">
			<path d="M42.3,1H7.7C6.2,1,5.1,2.2,5.1,3.6v42.8c0,1.4,1.2,2.6,2.6,2.6h34.6c1.4,0,2.6-1.2,2.6-2.6V3.6C44.9,2.2,43.8,1,42.3,1z
				 M43.5,41.1H40c-0.4,0-0.7,0.3-0.7,0.7c0,0.4,0.3,0.7,0.7,0.7h3.5v3.8c0,0.6-0.5,1.2-1.2,1.2H7.7c-0.6,0-1.2-0.5-1.2-1.2v-3.8
				l36.9,0c0.4,0,1.1-0.9,1.1-1.3c0-0.4-7.6-0.2-8-0.2H6.5V3.6C6.5,3,7,2.5,7.7,2.5h34.6c0.6,0,1.2,0.5,1.2,1.2v4.3H5.6
				c-0.4,0,0,0.3,0,0.7s0.1,0.7,0.5,0.7h37.4V41.1z"/>
			<circle cx="25" cy="45.1" r="0.7"/>
			<path d="M27.2,4.4h-4.4c-0.4,0-0.7,0.3-0.7,0.7s0.3,0.7,0.7,0.7h4.4c0.4,0,0.7-0.3,0.7-0.7S27.6,4.4,27.2,4.4z"/>
		</g>
		<g id="icon-mobile">
			<path d="M34.2,1.2H15.8c-2.4,0-4.4,2-4.4,4.4v38.8c0,2.4,2,4.4,4.4,4.4h18.5c2.4,0,4.4-2,4.4-4.4V5.6C38.6,3.2,36.7,1.2,34.2,1.2z
				M12.9,12.1h24.2v25.9H12.9V12.1z M15.8,2.7h18.5c1.6,0,2.8,1.3,2.8,2.8v4.9H12.9V5.6C12.9,4,14.2,2.7,15.8,2.7z M34.2,47.3H15.8
				c-1.6,0-2.8-1.3-2.8-2.8v-4.9h24.2v4.9C37.1,46,35.8,47.3,34.2,47.3z"/>
			<path d="M22.9,7.4h4.3c0.4,0,0.8-0.3,0.8-0.8s-0.3-0.8-0.8-0.8h-4.3c-0.4,0-0.8,0.3-0.8,0.8S22.4,7.4,22.9,7.4z"/>
			<path d="M25,41.1c-1.3,0-2.3,1-2.3,2.3s1,2.3,2.3,2.3s2.3-1,2.3-2.3S26.3,41.1,25,41.1z M25,44.1c-0.4,0-0.8-0.3-0.8-0.8
				s0.3-0.8,0.8-0.8c0.4,0,0.8,0.3,0.8,0.8S25.4,44.1,25,44.1z"/>
		</g>
		<g id="icon-support">
			<path d="M31.9,33.9V33c0.2-0.2,0.5-0.4,0.7-0.6c1.7-1.9,2.8-4.3,3.1-6.9c1.6-0.2,3-1.1,3.9-2.3c1.3-1.9,1.4-4.5,0.3-7.9
				c-0.1-0.2-0.2-0.4-0.4-0.5l-0.5-0.3c0.1-3-1-6-2.9-8.3C33.7,3.4,30,2.1,25,2c-5,0-8.7,1.4-11.1,4.1c-2,2.3-3,5.3-2.9,8.3l-0.5,0.3
				c-0.2,0.1-0.3,0.3-0.4,0.5c-1.1,3.4-1,6,0.3,7.9c1,1.3,2.4,2.1,3.9,2.4c0.3,2.6,1.4,5,3.1,6.9c0.2,0.2,0.4,0.4,0.7,0.6v0.8
				C14.7,34.5,0.8,37.8,1,47.1C1,47.6,1.4,48,1.9,48h46.1c0.5,0,0.9-0.4,0.9-0.9C49.2,37.8,35.3,34.5,31.9,33.9z M13.8,23.5
				c-0.8-0.3-1.4-0.7-1.9-1.4l0,0c-0.9-1.3-1-3.3-0.2-6l0.7-0.4c0.3-0.2,0.4-0.5,0.4-0.8c-0.2-2.7,0.7-5.4,2.5-7.5
				c2-2.3,5.3-3.5,9.7-3.5s7.7,1.2,9.8,3.5c1.7,2.1,2.6,4.8,2.5,7.5c0,0.3,0.1,0.7,0.4,0.8l0.7,0.4c0.8,2.6,0.8,4.7-0.2,6
				c-0.5,0.7-1.2,1.1-1.9,1.4c1.1-1.2,1.6-2.9,1.5-4.5c-0.2-1-0.7-1.9-1.5-2.5c-0.4-9.1-6.7-10.1-9.5-10.1c-0.6,0-1.2,0-1.7,0.1
				c-0.6-0.1-1.2-0.1-1.7-0.1c-2.7,0-9.1,1-9.5,10.1c-0.8,0.6-1.3,1.5-1.5,2.5C12.1,20.6,12.7,22.2,13.8,23.5z M34.4,16
				c-3.8,0.2-7.6-0.7-10.8-2.7c-0.4-0.3-0.9-0.2-1.2,0.1c-1.8,1.9-5.1,2.4-6.7,2.5c0.5-6.4,4.4-7.8,7.6-7.8c0.5,0,1,0,1.6,0.1
				c0.1,0,0.2,0,0.4,0c0.5-0.1,1-0.1,1.6-0.1C30,8.1,33.9,9.6,34.4,16L34.4,16z M16,23.7L16,23.7c0-0.2,0-0.4-0.2-0.6
				c-1.2-1.4-1.8-2.7-1.7-3.8c0.1-0.6,0.4-1.1,0.8-1.5c1.2,0,5.4-0.2,8.2-2.6c3.1,1.8,6.5,2.7,10.1,2.7c0.6,0,1.2,0,1.9-0.1
				c0.4,0.4,0.7,0.9,0.8,1.5c0.2,1.1-0.4,2.4-1.7,3.8c-0.1,0.2-0.2,0.4-0.2,0.6c0,0,0,0.2,0,0.5L28.7,27c-1-1-2.7-0.9-3.7,0.1
				c-1,1-0.9,2.7,0.1,3.7c1,1,2.7,0.9,3.7-0.1c0.5-0.5,0.7-1.1,0.7-1.8c0-0.1,0-0.2,0-0.2l4.2-2.2c-0.4,1.8-1.2,3.4-2.4,4.8
				c-1.6,1.5-3.8,2.4-6,2.2h-0.5c-2.2,0.1-4.4-0.7-6-2.2C15.9,28.3,16,23.7,16,23.7z M27.7,28.9c0,0.4-0.4,0.8-0.8,0.8
				c-0.4,0-0.8-0.4-0.8-0.8c0-0.4,0.4-0.8,0.8-0.8S27.7,28.4,27.7,28.9z M24.1,46.1H2.9c0.7-6.8,11.8-9.7,15.3-10.4v1.6
				c0,2.1,2.5,3.6,5.9,3.9V46.1z M20,37.3L20,37.3v-3.1c1.5,0.7,3.2,1,4.8,1h0.5c1.7,0,3.3-0.3,4.8-1v3.1c0,0.9-2,2.1-5,2.1
				S20,38.2,20,37.3z M25.9,46.1v-4.9c3.4-0.2,5.9-1.8,5.9-3.9v-1.6c3.5,0.7,14.5,3.6,15.3,10.4L25.9,46.1L25.9,46.1z"/>
		</g>
		<g id="icon-pricing">
			<path d="M21.9,27.4h6.1c2.4,0,4.3,2.1,4.3,4.8c0,2.6-1.9,4.8-4.3,4.8H17c-1.4,0-2.5,1.1-2.5,2.5s1.1,2.5,2.5,2.5h5.5v4.5
			c0,1.4,1.1,2.5,2.5,2.5c1.4,0,2.5-1.1,2.5-2.5v-4.5h0.7c0,0,0,0,0.1,0c5-0.1,9.1-4.4,9.1-9.7c0-5.3-4.1-9.7-9.2-9.7H22
			c-2.4,0-4.3-2.1-4.3-4.8S19.6,13,22,13h10.8c1.4,0,2.5-1.1,2.5-2.5s-1.1-2.5-2.5-2.5h-5.3V3.6c0-1.4-1.1-2.5-2.5-2.5
			c-1.4,0-2.5,1.1-2.5,2.5v4.5h-0.6c-5.1,0-9.2,4.3-9.2,9.7S16.9,27.4,21.9,27.4z"/>
		</g>
		<g id="icon-livechat">
			<path d="M25,12.9c-0.5,0-0.9,0.4-0.9,0.9s0.4,0.9,0.9,0.9s0.9-0.4,0.9-0.9S25.5,12.9,25,12.9z"/>
			<path d="M9.5,29.7c0.5,0,0.9-0.4,0.9-0.9s-0.4-0.9-0.9-0.9c-0.5,0-0.9,0.4-0.9,0.9S9,29.7,9.5,29.7z"/>
			<path d="M32.5,3.5c-8.4,0-15.3,5.8-15.8,13.1c-8,0.4-15.5,6.2-15.5,14c0,3.3,1.3,6.4,3.6,8.9c0.5,1.9-0.1,3.9-1.5,5.3
				c-0.3,0.3-0.3,0.7-0.2,1c0.1,0.3,0.5,0.6,0.9,0.6c2.7,0,5.2-1,7.1-2.9c1.9,0.6,4.3,1,6.5,1c8.4,0,15.3-5.8,15.8-13.1
				c2-0.1,4-0.4,5.6-1c1.9,1.8,4.5,2.9,7.1,2.9c0.4,0,0.7-0.2,0.9-0.6c0.1-0.3,0.1-0.7-0.2-1c-1.4-1.4-2-3.4-1.5-5.3
				c2.3-2.5,3.6-5.7,3.6-8.9C48.9,9.4,40.8,3.5,32.5,3.5z M17.5,42.7c-2.2,0-4.7-0.4-6.4-1.1c-0.4-0.1-0.8,0-1,0.2
				C9,43.1,7.5,44,5.9,44.3c0.9-1.7,1.1-3.7,0.6-5.6c0-0.1-0.1-0.3-0.2-0.4c-2.1-2.2-3.3-5-3.3-7.8C3,24,9.6,18.5,17.5,18.5
				c7.4,0,14,5.2,14,12.1C31.5,37.3,25.3,42.7,17.5,42.7z M43.7,25.3c-0.1,0.1-0.2,0.2-0.2,0.4c-0.5,1.9-0.3,3.9,0.6,5.6
				c-1.6-0.4-3.1-1.3-4.2-2.5c-0.3-0.3-0.7-0.4-1-0.2c-1.5,0.6-3.5,1-5.5,1.1c-0.3-3.5-2-6.8-5-9.3h12.2c0.5,0,0.9-0.4,0.9-0.9
				c0-0.5-0.4-0.9-0.9-0.9h-15c-2.1-1.1-4.5-1.7-6.9-1.8c0.5-6.3,6.6-11.2,14-11.2C40.4,5.4,47,11,47,17.5C47,20.4,45.9,23.2,43.7,25.3
				z"/>
			<path d="M25,27.8H13.2c-0.5,0-0.9,0.4-0.9,0.9c0,0.5,0.4,0.9,0.9,0.9H25c0.5,0,0.9-0.4,0.9-0.9C25.9,28.2,25.5,27.8,25,27.8z"/>
			<path d="M25,33.4H9.5c-0.5,0-0.9,0.4-0.9,0.9s0.4,0.9,0.9,0.9H25c0.5,0,0.9-0.4,0.9-0.9S25.5,33.4,25,33.4z"/>
			<path d="M40.5,12.9H28.7c-0.5,0-0.9,0.4-0.9,0.9s0.4,0.9,0.9,0.9h11.8c0.5,0,0.9-0.4,0.9-0.9S41,12.9,40.5,12.9z"/>
		</g>
		<g id="icon-backgroundPatternsComponent">
			<path d="M43,1H7C3.7,1,1,3.7,1,7v30c0,0.4,1.4,1.4,1.4,1v-4.5h14.1v14.1H7c-2.5,0-4.6-2.1-4.6-4.6v-9c0-0.4-1.4-0.4-1.4,0v9
			c0,3.3,2.7,6,6,6H43c3.3,0,6-2.7,6-6V7C49,3.7,46.3,1,43,1z M47.6,7v9.4h-4.2c-0.4,0-0.4,1.4,0,1.4h4.2v14.2H33.5V17.9H45
			c0.4,0,0.4-1.4,0-1.4H33.5V2.4H43C45.5,2.4,47.6,4.5,47.6,7z M32.1,17.9v14.2H17.9V17.9H32.1z M17.9,16.5V2.4h14.2v14.1H17.9z
			M7,2.4h9.4v14.1H2.4V7C2.4,4.5,4.5,2.4,7,2.4z M2.4,32.1V17.9h14.1v14.2H2.4z M17.9,33.5h14.2v14.1H17.9V33.5z M43,47.6h-9.4V33.5
			h14.1V43C47.6,45.5,45.5,47.6,43,47.6z"/>
		</g>
		<g id="icon-Blur">
			<path d="M0.3,15.1L15.1,0.3c1.3,0,2.5,0.2,3.7,0.5l-18,18C0.5,17.6,0.3,16.4,0.3,15.1
			L0.3,15.1z M1.1,10.2c1.5-4.3,4.8-7.6,9.1-9.1L1.1,10.2L1.1,10.2z M2,21.8L21.8,2c0.9,0.5,1.7,1,2.5,1.7L3.6,24.3
			C3,23.5,2.4,22.7,2,21.8L2,21.8z M14.9,29.7c-1.2,0-2.5-0.2-3.7-0.5l18-18c0.3,1.2,0.5,2.4,0.5,3.7L14.9,29.7z M19.8,28.9l9.1-9.1
			C27.4,24.1,24.1,27.4,19.8,28.9z M8.2,28c-0.9-0.5-1.7-1-2.5-1.7L26.4,5.7C27,6.5,27.6,7.3,28,8.2L8.2,28L8.2,28z"/>
		</g>
		<g id="icon-Brightness">
			<path d="M15,9.2c3.2,0,5.8,2.6,5.8,5.8s-2.6,5.8-5.8,5.8S9.2,18.2,9.2,15
			S11.8,9.2,15,9.2z M13.6,6.3V0.5h2.9v5.8H13.6z M13.6,29.5v-5.8h2.9v5.8H13.6z M23.7,16.5v-2.9h5.8v2.9H23.7z M0.5,16.5v-2.9h5.8
			v2.9H0.5z M21.4,9.6l-2.1-2.1l4.1-4.1l2.1,2.1L21.4,9.6z M5.5,25.5l-2.1-2.1l4.1-4.1l2.1,2.1C9.6,21.4,5.5,25.5,5.5,25.5z M7.5,9.6
			L3.4,5.5l2.1-2.1l4.1,4.1C9.6,7.5,7.5,9.6,7.5,9.6z M23.5,25.5l-4.1-4.1l2.1-2.1l4.1,4.1L23.5,25.5z M15,17.9c1.6,0,2.9-1.3,2.9-2.9
			s-1.3-2.9-2.9-2.9s-2.9,1.3-2.9,2.9S13.4,17.9,15,17.9z"/>
		</g>
		<g id="icon-Contrast">
			<path d="M15,0.5C23,0.5,29.5,7,29.5,15S23,29.5,15,29.5S0.5,23,0.5,15S7,0.5,15,0.5z
			M3.4,15c0,6.4,5.2,11.6,11.6,11.6V3.4C8.6,3.4,3.4,8.6,3.4,15z"/>
		</g>
		<g id="icon-Saturation">
			<path d="M4.8,18.8C4.8,11.2,15,0.5,15,0.5s10.1,10.7,10.1,18.3
			c0,6.1-2.9,10.7-10.1,10.7S4.8,24.9,4.8,18.8z M19.4,20.8c2.3,0,2.8-1.8,2.9-2.5c-0.3-4.1-4.3-9.8-7.2-13.4c-3,3.7-7.3,9.8-7.3,13.9
			c0,0.7,0,1.2,0.1,1.8c0.4-0.6,1.8-2.7,4.2-2.7C15,17.9,16.5,20.8,19.4,20.8z"/>
		</g>
		<g id="icon-Hue">
			<path d="M24.3,10.9c0-0.1,0-0.1,0-0.2c0-5.2-4.2-9.3-9.3-9.3s-9.3,4.2-9.3,9.3c0,0.1,0,0.1,0,0.2c-3.1,1.5-5.2,4.7-5.2,8.3
			c0,5.2,4.2,9.3,9.4,9.3c1.9,0,3.6-0.6,5.1-1.5c1.5,1,3.2,1.5,5.1,1.5c5.2,0,9.4-4.2,9.4-9.3C29.5,15.6,27.4,12.5,24.3,10.9z
			M15,24.9c-1.4-1.3-2.4-3.1-2.5-5.2c0.8,0.2,1.7,0.3,2.5,0.3s1.7-0.1,2.5-0.3C17.4,21.8,16.4,23.6,15,24.9z M15,18.4
			c-0.9,0-1.7-0.1-2.4-0.4c0.3-1.8,1.2-3.3,2.4-4.4c1.3,1.1,2.2,2.7,2.4,4.4C16.7,18.3,15.9,18.4,15,18.4z M11,17.2
			c-1.8-1.1-3.1-3-3.5-5.2c0.8-0.3,1.6-0.4,2.4-0.4c1.3,0,2.6,0.3,3.7,0.9C12.3,13.8,11.4,15.4,11,17.2z M16.4,12.6
			c1.1-0.6,2.3-0.9,3.7-0.9c0.9,0,1.7,0.1,2.4,0.4c-0.4,2.2-1.7,4.1-3.5,5.2C18.6,15.4,17.7,13.8,16.4,12.6z M15,3.1
			c4,0,7.4,3.2,7.6,7.1C21.8,10,21,9.9,20.1,9.9c-1.9,0-3.6,0.6-5.1,1.5c-1.5-1-3.2-1.5-5.1-1.5C9,9.9,8.2,10,7.4,10.2
			C7.6,6.3,11,3.1,15,3.1z M9.9,26.9c-4.2,0-7.7-3.4-7.7-7.6c0-2.7,1.5-5.2,3.7-6.5c0.6,2.8,2.4,5.1,4.9,6.3c0,0.1,0,0.1,0,0.2
			c0,2.6,1.1,5,2.8,6.7C12.5,26.6,11.2,26.9,9.9,26.9z M20.1,26.9c-1.3,0-2.6-0.3-3.7-0.9c1.7-1.7,2.8-4.1,2.8-6.7c0-0.1,0-0.1,0-0.2
			c2.5-1.3,4.3-3.6,4.9-6.3c2.2,1.3,3.7,3.8,3.7,6.5C27.8,23.5,24.3,26.9,20.1,26.9z"/>
		</g>
		<g id="icon-Noise">
			<path d="M8.4,5.6c1.3,0,2.3-1,2.3-2.3c0-0.6-0.3-1.2-0.7-1.6C8.7,2.2,7.4,2.9,6.2,3.8C6.5,4.8,7.4,5.6,8.4,5.6z"/>
			<path d="M3.2,7.1c-0.8,1.2-1.5,2.6-1.9,4.1c0.2,0.1,0.5,0.1,0.7,0.1c1.3,0,2.3-1,2.3-2.3C4.4,8.3,3.9,7.5,3.2,7.1z"/>
			<circle cx="8.4" cy="9.1" r="2.3"/>
			<circle cx="14.7" cy="3.3" r="2.3"/>
			<path d="M21.1,5.6c1.2,0,2.1-0.9,2.3-2c-1.1-0.8-2.4-1.5-3.7-2c-0.5,0.4-0.8,1-0.8,1.7C18.8,4.5,19.8,5.6,21.1,5.6z"/>
			<circle cx="14.7" cy="9.1" r="2.3"/>
			<circle cx="21.1" cy="9.1" r="2.3"/>
			<path d="M2.1,12.6c-0.4,0-0.8,0.1-1.1,0.3c-0.1,0.7-0.1,1.3-0.1,2c0,0.7,0.1,1.3,0.1,2c0.3,0.2,0.7,0.3,1.1,0.3
				c1.3,0,2.3-1,2.3-2.3C4.4,13.7,3.3,12.6,2.1,12.6z"/>
			<circle cx="8.4" cy="14.9" r="2.3"/>
			<path d="M2.1,18.5c-0.3,0-0.5,0-0.7,0.1c0.4,1.5,1,2.9,1.9,4.1c0.7-0.4,1.1-1.1,1.1-2C4.4,19.5,3.3,18.5,2.1,18.5z"/>
			<circle cx="8.4" cy="20.8" r="2.3"/>
			<circle cx="14.7" cy="14.9" r="2.3"/>
			<circle cx="21.1" cy="14.9" r="2.3"/>
			<circle cx="14.7" cy="20.8" r="2.3"/>
			<circle cx="21.1" cy="20.8" r="2.3"/>
			<path d="M27.2,11.4c0.5,0,1-0.2,1.4-0.5c-0.4-1.4-1.1-2.8-1.9-4c-1,0.3-1.7,1.1-1.7,2.2C24.9,10.4,25.9,11.4,27.2,11.4z"/>
			<path d="M29.1,13.6c-0.4-0.6-1.1-1-1.9-1c-1.3,0-2.3,1-2.3,2.3c0,1.3,1,2.3,2.3,2.3c0.8,0,1.5-0.4,1.9-1c0-0.4,0.1-0.9,0.1-1.3
				C29.1,14.5,29.1,14.1,29.1,13.6z"/>
			<path d="M24.9,20.8c0,1.1,0.7,1.9,1.7,2.2c0.8-1.2,1.5-2.6,1.9-4c-0.4-0.3-0.8-0.5-1.4-0.5C25.9,18.5,24.9,19.5,24.9,20.8z"/>
			<path d="M8.5,24.4c-1,0-1.9,0.7-2.2,1.7c1.2,0.9,2.5,1.6,3.9,2.1c0.4-0.4,0.6-0.9,0.6-1.5C10.8,25.5,9.8,24.4,8.5,24.4z"/>
			<circle cx="14.8" cy="26.7" r="2.3"/>
			<path d="M21.2,24.4c-1.3,0-2.3,1-2.3,2.3c0,0.6,0.2,1.2,0.6,1.6c1.4-0.5,2.7-1.2,3.9-2C23.2,25.2,22.3,24.4,21.2,24.4z"/>
		</g>
		<g id="icon-Pixelate">
			<path d="M7.7,29h14.7c3.6,0,6.6-3,6.6-6.6V7.7c0-3.6-3-6.6-6.6-6.6H7.7c-3.6,0-6.6,3-6.6,6.6v14.7C1.1,26,4,29,7.7,29z
			M21.6,21.6V15h5.7v6.5H21.6L21.6,21.6z M21.6,15H15V8.5h6.5L21.6,15L21.6,15z M15,8.5H8.5V2.8H15V8.5z M8.5,8.5V15H2.8V8.5H8.5z
			M8.5,15H15v6.5H8.5V15z M15,21.6h6.5v5.7H15V21.6z M27.2,7.7v0.8h-5.7V2.8h0.8C25,2.8,27.2,5,27.2,7.7z M2.8,21.6h5.7v5.7H7.7
			c-2.7,0-4.9-2.2-4.9-4.9L2.8,21.6L2.8,21.6z"/>
		</g>
		<g id="icon-make-pattern">
			<path d="M30,8.8V6.2h-7.2V0h-2.7v6.2H9.9V0H7.2v6.2H0v2.7h7.2v12.3H0v2.7h7.2V30h2.7v-6.2h10.2V30h2.7v-6.2H30v-2.7h-7.2V8.8H30z
		 M20.1,21.2H9.9V8.8h10.2V21.2z"/>
		</g>
		<g id="icon-quotesComponent">
			<path d="M38.7,19.8c-0.1-1.1,0-4,2.8-8.1c0.2-0.3,0.2-0.7-0.1-1c-1.1-1.1-1.9-1.9-2.4-2.4c-0.7-0.7-1-1-1.4-1.4
			c-0.3-0.3-0.7-0.3-1,0C31.7,11.2,26.3,20,27,30.8c0.5,6.3,5.1,10.9,11,10.9c6.1,0,11-4.9,11-11C49,24.9,44.4,20.1,38.7,19.8z
			 M38,40.2c-5.1,0-9-4-9.4-9.5c0,0,0,0,0,0c-0.9-12.1,6.3-20,8.5-22.1c0.2,0.2,0.5,0.5,0.8,0.8c0.4,0.4,1,1,1.9,1.9
			c-3.4,5.3-2.8,9-2.5,9.5c0.1,0.3,0.4,0.4,0.7,0.4c5.2,0,9.4,4.2,9.4,9.4C47.5,36,43.2,40.2,38,40.2z"/>
			<path d="M38,42c-6,0-10.8-4.7-11.2-11.2C26,20,31.5,11.1,36.4,6.8c0.4-0.3,1-0.3,1.3,0c0.4,0.4,0.7,0.7,1.4,1.4l0.1,0.1
				c0.5,0.5,1.2,1.2,2.3,2.3c0.3,0.3,0.4,0.9,0.1,1.3c-2.6,3.8-2.8,6.5-2.8,7.7c5.8,0.4,10.4,5.3,10.4,11.2C49.3,37,44.2,42,38,42z
				M37.1,7c-0.1,0-0.2,0-0.3,0.1c-4.9,4.2-10.2,13-9.5,23.7c0.5,6.2,5,10.7,10.7,10.7c5.9,0,10.8-4.8,10.8-10.7
				c0-5.7-4.4-10.4-10.1-10.7l-0.2,0l0-0.2c-0.1-1.1,0-4.1,2.8-8.2c0.1-0.2,0.1-0.5-0.1-0.7c-1.1-1.1-1.8-1.8-2.3-2.3l-0.1-0.1
				c-0.7-0.7-0.9-1-1.4-1.4C37.4,7.1,37.2,7,37.1,7z M38,40.5c-5.2,0-9.3-4.1-9.7-9.7c-0.9-12.2,6.3-20.2,8.6-22.3l0.2-0.2l0.2,0.2
				c0.2,0.2,0.5,0.5,0.8,0.8c0.4,0.4,1,1,1.9,1.9l0.1,0.1L40,11.5c-3.4,5.2-2.7,8.8-2.5,9.3c0.1,0.2,0.3,0.3,0.5,0.3
				c5.3,0,9.7,4.3,9.7,9.7C47.7,36.1,43.4,40.5,38,40.5z M37.1,8.9c-2.4,2.3-9.1,10-8.3,21.7c0.4,5.4,4.3,9.3,9.2,9.3
				c5.1,0,9.2-4.1,9.2-9.2c0-5.1-4.1-9.2-9.2-9.2c-0.4,0-0.7-0.2-0.9-0.6c-0.3-0.5-1-4.3,2.4-9.6c-0.8-0.8-1.4-1.4-1.8-1.8
				C37.5,9.3,37.3,9.1,37.1,8.9z"/>
			<path d="M12.7,19.8c-0.1-1.1,0-4,2.8-8.1c0.2-0.3,0.2-0.7-0.1-1c-1.1-1.1-1.9-1.9-2.3-2.4c-0.7-0.7-1-1-1.4-1.4
				c-0.3-0.3-0.7-0.3-1,0C5.7,11.2,0.3,20,1.1,30.8v0c0.5,6.3,5.1,10.9,11,10.9c6.1,0,11-4.9,11-11C23,24.9,18.5,20.1,12.7,19.8z
				M12.1,40.2c-5.1,0-9-4-9.4-9.5v0c-0.9-12.1,6.3-20,8.5-22.1c0.2,0.2,0.5,0.5,0.8,0.8c0.4,0.4,1,1,1.9,1.9c-3.4,5.3-2.8,9-2.5,9.5
				c0.1,0.3,0.4,0.4,0.7,0.4c5.2,0,9.4,4.2,9.4,9.4C21.5,36,17.3,40.2,12.1,40.2z"/>
			<path d="M12.1,42C6,42,1.3,37.3,0.8,30.8C0,20,5.5,11.1,10.5,6.8c0.4-0.3,1-0.3,1.3,0c0.4,0.4,0.8,0.7,1.4,1.4l0.1,0.1
				c0.5,0.5,1.2,1.2,2.2,2.2c0.3,0.3,0.4,0.9,0.1,1.3c-2.6,3.8-2.8,6.5-2.8,7.7c5.8,0.4,10.4,5.3,10.4,11.2C23.3,37,18.2,42,12.1,42z
				M11.1,7c-0.1,0-0.2,0-0.4,0.1c-4.9,4.2-10.2,13-9.5,23.7c0.5,6.2,5,10.7,10.7,10.7c5.9,0,10.7-4.8,10.7-10.7
				c0-5.7-4.4-10.4-10.1-10.7l-0.2,0l0-0.2c-0.1-1.1,0-4.1,2.8-8.2c0.1-0.2,0.1-0.5-0.1-0.7c-1-1-1.7-1.7-2.2-2.2l-0.1-0.1
				c-0.6-0.7-0.9-1-1.4-1.4C11.4,7.1,11.3,7,11.1,7z M12.1,40.5c-5.2,0-9.3-4.1-9.7-9.7C1.5,18.5,8.7,10.6,11,8.4l0.2-0.2l0.2,0.2
				c0.2,0.2,0.5,0.5,0.8,0.8c0.4,0.4,1,1,1.9,1.9l0.1,0.1L14,11.5c-3.4,5.2-2.7,8.8-2.5,9.3c0.1,0.2,0.3,0.3,0.5,0.3
				c5.3,0,9.7,4.3,9.7,9.7C21.7,36.1,17.4,40.5,12.1,40.5z M11.1,8.9C8.7,11.3,2,19,2.9,30.7c0.4,5.4,4.3,9.3,9.2,9.3
				c5.1,0,9.2-4.1,9.2-9.2c0-5.1-4.1-9.2-9.2-9.2c-0.4,0-0.7-0.2-0.9-0.6c-0.3-0.5-1-4.3,2.4-9.6c-0.8-0.8-1.4-1.4-1.8-1.8
				C11.5,9.3,11.3,9.1,11.1,8.9z"/>
		</g>
	</defs>
	<g fill="#2B2C2B">
		<use xlink:href="#icon-clipartComponent" transform="translate(0 0)"></use>
		<use xlink:href="#icon-designsComponent" transform="translate(60 0)"></use>
		<use xlink:href="#icon-nameNumberComponent" transform="translate(120 0)"></use>
		<use xlink:href="#icon-imagesComponent" transform="translate(180 0)"></use>
		<use xlink:href="#icon-textComponent" transform="translate(240 0)"></use>
		<use xlink:href="#icon-backgroundColorComponent" transform="translate(300 0)"></use>
		<use xlink:href="#icon-templatesComponent" transform="translate(360 0)"></use>
		<use xlink:href="#icon-side-prev" transform="translate(420 0)"></use>
		<use xlink:href="#icon-side-next" transform="translate(480 0)"></use>
		<use xlink:href="#icon-search" transform="translate(530 0)"></use>
		<use xlink:href="#icon-view" transform="translate(580 0)"></use>
		<use xlink:href="#icon-share" transform="translate(610 0)"></use>
		<use xlink:href="#icon-save" transform="translate(640 0)"></use>
		<use xlink:href="#icon-download" transform="translate(670 0)"></use>
		<use xlink:href="#icon-setting" transform="translate(710 0)"></use>
		<use xlink:href="#icon-align-left" transform="translate(770 0)"></use>
		<use xlink:href="#icon-align-center" transform="translate(805 0)"></use>
		<use xlink:href="#icon-align-right" transform="translate(840 0)"></use>
		<use xlink:href="#icon-align-top" transform="translate(880 0)"></use>
		<use xlink:href="#icon-align-vcenter" transform="translate(915 0)"></use>
		<use xlink:href="#icon-align-bottom" transform="translate(945 0)"></use>
		<use xlink:href="#icon-align-vertical" transform="translate(980 0)"></use>
		<use xlink:href="#icon-align-horizontal" transform="translate(1015 0)"></use>
		<use xlink:href="#icon-layer-top" transform="translate(1045 0)"></use>
		<use xlink:href="#icon-layer-mbottom" transform="translate(1080 0)"></use>
		<use xlink:href="#icon-layer-mtop" transform="translate(1115 0)"></use>
		<use xlink:href="#icon-layer-bottom" transform="translate(1150 0)"></use>
		<use xlink:href="#icon-flip-v" transform="translate(1180 0)"></use>
		<use xlink:href="#icon-flip-h" transform="translate(1215 0)"></use>
		<use xlink:href="#icon-t-group" transform="translate(1250 0)"></use>
		<use xlink:href="#icon-t-ungroup" transform="translate(1285 0)"></use>
		<use xlink:href="#icon-t-lock" transform="translate(1315 0)"></use>
		<use xlink:href="#icon-t-duplicate" transform="translate(1345 0)"></use>
		<use xlink:href="#icon-t-delete" transform="translate(1380 0)"></use>
		<use xlink:href="#icon-text-bold" transform="translate(1415 0)"></use>
		<use xlink:href="#icon-text-italic" transform="translate(1442 0)"></use>
		<use xlink:href="#icon-text-underline" transform="translate(1470 0)"></use>
		<use xlink:href="#icon-text-aleft" transform="translate(1500 0)"></use>
		<use xlink:href="#icon-text-acenter" transform="translate(1535 0)"></use>
		<use xlink:href="#icon-text-aright" transform="translate(1570 0)"></use>
		<use xlink:href="#icon-text-ajustify" transform="translate(1605 0)"></use>
		<use xlink:href="#icon-facebook" transform="translate(1635 0)"></use>
		<use xlink:href="#icon-twitter" transform="translate(1675 0)"></use>
		<use xlink:href="#icon-mail" transform="translate(1735 0)"></use>
		<use xlink:href="#icon-pinterest" transform="translate(1785 0)"></use>
		<use xlink:href="#icon-google-plus" transform="translate(1830 0)"></use>
		<use xlink:href="#icon-undo" transform="translate(0 60)"></use>
		<use xlink:href="#icon-redo" transform="translate(35 60)"></use>
		<use xlink:href="#icon-zoom" transform="translate(70 60)"></use>
		<use xlink:href="#icon-fit-screen" transform="translate(105 60)"></use>
		<use xlink:href="#icon-reset" transform="translate(140 60)"></use>
		<use xlink:href="#icon-info" transform="translate(170 60)"></use>
		<use xlink:href="#icon-upfacebook" transform="translate(195 60)"></use>
		<use xlink:href="#icon-upinsta" transform="translate(230 60)"></use>
		<use xlink:href="#icon-uptwitter" transform="translate(265 60)"></use>
		<use xlink:href="#icon-uplink" transform="translate(300 60)"></use>
		<use xlink:href="#icon-upgoogle" transform="translate(335 60)"></use>
		<use xlink:href="#icon-upmore" transform="translate(370 60)"></use>
		<use xlink:href="#icon-upload" transform="translate(405 60)"></use>
		<use xlink:href="#icon-best-fit" transform="translate(440 60)"></use>
		<use xlink:href="#icon-crop" transform="translate(475 60)"></use>
		<use xlink:href="#icon-imageEffectComponent" transform="translate(510 60)"></use>
		<use xlink:href="#icon-imageUploadComponent" transform="translate(565 60)"></use>
		<use xlink:href="#icon-textEffectComponent" transform="translate(615 60)"></use>
		<use xlink:href="#icon-layer" transform="translate(670 60)"></use>
		<use xlink:href="#icon-view-alt" transform="translate(722 60)"></use>
		<use xlink:href="#icon-user" transform="translate(752 60)"></use>
		<use xlink:href="#icon-question" transform="translate(780 60)"></use>
		<use xlink:href="#icon-more-btn" transform="translate(805 60)"></use>
		<use xlink:href="#icon-cart" transform="translate(825 60)"></use>
		<use xlink:href="#icon-upload-mob" transform="translate(860 60)"></use>
		<use xlink:href="#icon-more-btn-v" transform="translate(905 60)"></use>
		<use xlink:href="#icon-logout" transform="translate(940 60)"></use>
		<use xlink:href="#icon-productComponent" transform="translate(975 60)"></use>
		<use xlink:href="#icon-3d" transform="translate(1025 60)"></use>
		<use xlink:href="#icon-desktop" transform="translate(1060 60)"></use>
		<use xlink:href="#icon-tablet" transform="translate(1110 60)"></use>
		<use xlink:href="#icon-mobile" transform="translate(1150 60)"></use>
		<use xlink:href="#icon-support" transform="translate(1200 60)"></use>
		<use xlink:href="#icon-pricing" transform="translate(1240 60)"></use>
		<use xlink:href="#icon-livechat" transform="translate(1280 60)"></use>
		<use xlink:href="#icon-Blur" transform="translate(1335 60)"></use>
		<use xlink:href="#icon-Brightness" transform="translate(1370 60)"></use>
		<use xlink:href="#icon-Contrast" transform="translate(1405 60)"></use>
		<use xlink:href="#icon-Saturation" transform="translate(1435 60)"></use>
		<use xlink:href="#icon-Hue" transform="translate(1465 60)"></use>
		<use xlink:href="#icon-Noise" transform="translate(1500 60)"></use>
		<use xlink:href="#icon-Pixelate" transform="translate(1535 60)"></use>
		<use xlink:href="#icon-make-pattern" transform="translate(1570 60)"></use>
	</g>
</svg>