<?xml version="1.0" encoding="utf-8"?>
<!-- Generator: Adobe Illustrator 16.0.0, SVG Export Plug-In . SVG Version: 6.00 Build 0)  -->
<!DOCTYPE svg PUBLIC "-//W3C//DTD SVG 1.1//EN" "http://www.w3.org/Graphics/SVG/1.1/DTD/svg11.dtd">
<svg version="1.1" id="Capa_1" xmlns="http://www.w3.org/2000/svg" xmlns:xlink="http://www.w3.org/1999/xlink" x="0px" y="0px"
	 width="35px" height="35px" viewBox="0 0 35 35" enable-background="new 0 0 35 35" xml:space="preserve">
<g>
	<g>
		<g>
			<path d="M6.465,13.54c-2.188,0-3.965,1.777-3.965,3.961c0,2.188,1.776,3.959,3.965,3.959c2.183,0,3.965-1.771,3.965-3.959
				C10.43,15.317,8.646,13.54,6.465,13.54z"/>
		</g>
		<g>
			<path d="M17.695,13.54c-2.184,0-3.961,1.777-3.961,3.961c0,2.188,1.777,3.959,3.961,3.959c2.188,0,3.965-1.771,3.965-3.959
				C21.66,15.317,19.883,13.54,17.695,13.54z"/>
		</g>
		<g>
			<path d="M28.545,13.54c-2.188,0-3.965,1.777-3.965,3.961c0,2.188,1.776,3.959,3.965,3.959c2.178,0,3.955-1.771,3.955-3.959
				C32.5,15.317,30.723,13.54,28.545,13.54z"/>
		</g>
	</g>
</g>
</svg>
