<?xml version="1.0" encoding="utf-8"?>
<!-- Generator: Adobe Illustrator 16.0.0, SVG Export Plug-In . SVG Version: 6.00 Build 0)  -->
<!DOCTYPE svg PUBLIC "-//W3C//DTD SVG 1.1//EN" "http://www.w3.org/Graphics/SVG/1.1/DTD/svg11.dtd">
<svg version="1.1" id="Capa_1" xmlns="http://www.w3.org/2000/svg" xmlns:xlink="http://www.w3.org/1999/xlink" x="0px" y="0px"
	 width="381.39px" height="381.391px" viewBox="0 0 381.39 381.391" enable-background="new 0 0 381.39 381.391"
	 xml:space="preserve">
<path stroke="#000000" stroke-width="10" stroke-miterlimit="10" d="M350.634,20.314L32.915,338.04l0.027-163.988
	c0-4.084-3.309-7.387-7.383-7.387c-4.078,0-7.385,3.303-7.385,7.387l-0.03,181.777c0,1.19,0.287,2.357,0.824,3.398
	c0.012,0.022,0.021,0.048,0.031,0.071c0.059,0.106,0.125,0.211,0.188,0.316c0.311,0.521,0.68,1.019,1.127,1.467
	c1.623,1.622,3.818,2.329,5.941,2.123l181.079,0.001c4.086,0,7.391-3.313,7.391-7.381c0-4.078-3.305-7.391-7.391-7.391H43.401
	L361.089,30.747c1.43-1.441,2.156-3.33,2.156-5.22c0-1.899-0.73-3.786-2.17-5.219C358.191,17.429,353.513,17.429,350.634,20.314z"/>
</svg>
