<?xml version="1.0" encoding="utf-8"?>
<!-- Generator: Adobe Illustrator 16.0.0, SVG Export Plug-In . SVG Version: 6.00 Build 0)  -->
<!DOCTYPE svg PUBLIC "-//W3C//DTD SVG 1.1//EN" "http://www.w3.org/Graphics/SVG/1.1/DTD/svg11.dtd">
<svg version="1.1" id="Capa_1" xmlns="http://www.w3.org/2000/svg" xmlns:xlink="http://www.w3.org/1999/xlink" x="0px" y="0px"
	 width="381.39px" height="381.391px" viewBox="0 0 381.39 381.391" enable-background="new 0 0 381.39 381.391"
	 xml:space="preserve">
<path stroke="#000000" stroke-width="10" stroke-miterlimit="10" d="M20.312,30.758l317.727,317.719L174.05,348.45
	c-4.084,0-7.387,3.309-7.387,7.383c0,4.078,3.303,7.385,7.387,7.385l181.778,0.029c1.191,0,2.359-0.287,3.4-0.824
	c0.021-0.012,0.049-0.021,0.07-0.031c0.107-0.059,0.211-0.125,0.316-0.188c0.52-0.313,1.02-0.683,1.467-1.127
	c1.623-1.623,2.33-3.818,2.123-5.941l0.002-181.079c0-4.085-3.314-7.388-7.381-7.388c-4.078,0-7.393,3.303-7.393,7.388V337.99
	L30.745,20.302c-1.441-1.43-3.33-2.156-5.217-2.156c-1.902,0-3.789,0.729-5.219,2.17C17.427,23.201,17.427,27.879,20.312,30.758z"/>
</svg>
