<?xml version="1.0" encoding="utf-8"?>
<!-- Generator: Adobe Illustrator 16.0.0, SVG Export Plug-In . SVG Version: 6.00 Build 0)  -->
<!DOCTYPE svg PUBLIC "-//W3C//DTD SVG 1.1//EN" "http://www.w3.org/Graphics/SVG/1.1/DTD/svg11.dtd">
<svg version="1.1" id="Capa_1" xmlns="http://www.w3.org/2000/svg" xmlns:xlink="http://www.w3.org/1999/xlink" x="0px" y="0px"
	 width="381.39px" height="381.391px" viewBox="0 0 381.39 381.391" enable-background="new 0 0 381.39 381.391"
	 xml:space="preserve">
<path stroke="#000000" stroke-width="10" stroke-miterlimit="10" d="M208.939,30.247c-83.289,0-151.949,63.794-159.712,145.081
	l-27.955-41.187c-1.57-2.31-4.732-2.898-7.042-1.347c-2.321,1.571-2.911,4.722-1.347,7.043l36.474,53.717
	c0.364,0.527,0.825,0.975,1.347,1.33c0.007,0.005,0.013,0.012,0.02,0.017c0.245,0.165,0.507,0.304,0.778,0.425
	c0.03,0.014,0.057,0.031,0.087,0.046c0.279,0.117,0.572,0.205,0.872,0.271c0.027,0.006,0.052,0.02,0.079,0.023
	c0.021,0.004,0.042,0.015,0.063,0.019c0.314,0.059,0.639,0.091,0.953,0.091c0.325,0,0.647-0.043,0.966-0.104
	c0.045-0.009,0.088-0.021,0.132-0.029c0.287-0.063,0.567-0.148,0.839-0.262c0.017-0.007,0.033-0.012,0.05-0.021
	c0.295-0.125,0.583-0.267,0.851-0.442l53.714-36.491c2.321-1.57,2.911-4.722,1.351-7.042c-1.591-2.311-4.736-2.9-7.046-1.351
	l-45.461,30.883c5.058-78.335,70.387-140.535,149.99-140.535c82.88,0,150.308,67.43,150.308,150.317
	c0,82.883-67.428,150.31-150.308,150.31c-50.032,0-96.623-24.765-124.655-66.268c-1.57-2.324-4.722-2.934-7.036-1.361
	c-2.321,1.557-2.928,4.712-1.358,7.029c29.92,44.294,79.652,70.732,133.048,70.732c88.464,0,160.441-71.978,160.441-160.445
	C369.38,102.228,297.403,30.247,208.939,30.247z"/>
</svg>
