<?xml version="1.0" encoding="utf-8"?>
<!-- Generator: Adobe Illustrator 16.0.0, SVG Export Plug-In . SVG Version: 6.00 Build 0)  -->
<!DOCTYPE svg PUBLIC "-//W3C//DTD SVG 1.1//EN" "http://www.w3.org/Graphics/SVG/1.1/DTD/svg11.dtd">
<svg version="1.1" id="Capa_1" xmlns="http://www.w3.org/2000/svg" xmlns:xlink="http://www.w3.org/1999/xlink" x="0px" y="0px"
	 width="381.39px" height="381.391px" viewBox="0 0 381.39 381.391" enable-background="new 0 0 381.39 381.391"
	 xml:space="preserve">
<path stroke="#000000" stroke-width="10" stroke-miterlimit="10" d="M361.078,350.634L43.351,32.915l163.988,0.025
	c4.084,0,7.387-3.309,7.387-7.384c0-4.078-3.303-7.384-7.387-7.384l-181.777-0.03c-1.193,0-2.36,0.288-3.401,0.824
	C22.138,18.98,22.113,18.99,22.09,19c-0.108,0.058-0.211,0.125-0.317,0.188c-0.522,0.312-1.018,0.682-1.467,1.126
	c-1.622,1.624-2.329,3.819-2.123,5.941v181.079c0,4.085,3.31,7.388,7.38,7.388c4.078,0,7.388-3.303,7.388-7.388V43.402
	L350.644,361.09c1.441,1.43,3.33,2.156,5.217,2.156c1.902,0,3.789-0.729,5.219-2.17
	C363.962,358.191,363.962,353.513,361.078,350.634z"/>
</svg>
