<?xml version="1.0" encoding="utf-8"?>
<!-- Generator: Adobe Illustrator 16.0.0, SVG Export Plug-In . SVG Version: 6.00 Build 0)  -->
<!DOCTYPE svg PUBLIC "-//W3C//DTD SVG 1.1//EN" "http://www.w3.org/Graphics/SVG/1.1/DTD/svg11.dtd">
<svg version="1.1" id="Capa_1" xmlns="http://www.w3.org/2000/svg" xmlns:xlink="http://www.w3.org/1999/xlink" x="0px" y="0px"
	 width="381.39px" height="381.391px" viewBox="0 0 381.39 381.391" enable-background="new 0 0 381.39 381.391"
	 xml:space="preserve">
<path stroke="#000000" stroke-width="10" stroke-miterlimit="10" d="M30.756,361.078L348.474,43.352l-0.025,163.988
	c0,4.084,3.309,7.387,7.383,7.387c4.078,0,7.385-3.303,7.385-7.387l0.029-181.777c0-1.19-0.287-2.357-0.824-3.398
	c-0.012-0.023-0.02-0.048-0.031-0.071c-0.059-0.108-0.125-0.211-0.188-0.317c-0.311-0.521-0.68-1.018-1.127-1.467
	c-1.623-1.622-3.818-2.329-5.941-2.123H174.055c-4.085,0-7.388,3.313-7.388,7.38c0,4.078,3.303,7.391,7.388,7.391H337.99
	L20.3,350.645c-1.43,1.441-2.156,3.33-2.156,5.217c0,1.902,0.729,3.789,2.17,5.222C23.2,363.963,27.877,363.963,30.756,361.078z"/>
</svg>
